<svg width="32" height="32" viewBox="0 0 32 32" fill="none" xmlns="http://www.w3.org/2000/svg">
<g clip-path="url(#clip0_1858_4414)">
<path d="M15.994 31.988C24.8272 31.988 31.988 24.8272 31.988 15.994C31.988 7.16076 24.8272 0 15.994 0C7.16076 0 0 7.16076 0 15.994C0 24.8272 7.16076 31.988 15.994 31.988Z" fill="#019267"/>
<path fill-rule="evenodd" clip-rule="evenodd" d="M6.72969 11.8911H5.75781V23.1696H26.2393V11.8911H25.2674V22.1738C25.2674 22.2338 25.2434 22.2818 25.1954 22.3058C25.1954 22.3178 25.1834 22.3178 25.1714 22.3298C25.1474 22.3418 25.1234 22.3418 25.0994 22.3418H25.0514C24.0795 22.1138 23.1076 21.9698 22.1118 21.8858C20.108 21.7178 17.9843 21.8018 16.0405 22.3418C16.0045 22.3537 15.9805 22.3537 15.9565 22.3418C14.0128 21.7778 11.889 21.6938 9.8733 21.8738C8.88942 21.9578 7.90554 22.1138 6.93367 22.3418C6.88567 22.3537 6.83768 22.3418 6.78968 22.3178C6.75369 22.2818 6.72969 22.2218 6.72969 22.1738V11.8911ZM19.5081 13.2109C18.9442 13.2589 18.3202 13.3549 17.7803 13.4989C17.6963 13.5229 17.6003 13.4749 17.5763 13.3909C17.5523 13.3069 17.6003 13.2109 17.6963 13.1869C18.2363 13.0309 18.9202 12.9349 19.4841 12.8869C20.7919 12.7669 22.1238 12.8509 23.3956 13.1869C23.4916 13.2109 23.5396 13.2949 23.5156 13.3909C23.5036 13.4629 23.4316 13.5109 23.3596 13.5109C23.3476 13.5109 23.3236 13.5109 23.3116 13.4989C22.0878 13.1629 20.7679 13.0909 19.5081 13.2109ZM16.1605 9.31138V21.9578L16.3645 21.9098C18.2483 21.4779 20.288 21.4059 22.2198 21.5738C23.0477 21.6458 23.9115 21.7538 24.7274 21.9218L24.9314 21.9698V9.31138L24.7994 9.28738C22.2438 8.68746 18.8482 8.65146 16.2925 9.27539L16.1605 9.31138ZM23.5156 11.3391C23.4916 11.4111 23.4316 11.4591 23.3596 11.4591H23.3116C22.0878 11.1112 20.7679 11.0392 19.5081 11.1591C18.9442 11.2071 18.3202 11.3031 17.7803 11.4591C17.6963 11.4831 17.6003 11.4351 17.5763 11.3391C17.5523 11.2551 17.6003 11.1591 17.6963 11.1352C18.2363 10.9792 18.9202 10.8832 19.4841 10.8352C20.7919 10.7272 22.1238 10.8112 23.3956 11.1352C23.4916 11.1591 23.5396 11.2551 23.5156 11.3391ZM19.4841 14.9387C20.7919 14.8187 22.1238 14.9027 23.3956 15.2386C23.4916 15.2626 23.5396 15.3466 23.5156 15.4306C23.5036 15.5026 23.4316 15.5626 23.3596 15.5626C23.3476 15.5626 23.3236 15.5506 23.3116 15.5506C22.0878 15.2146 20.7679 15.1307 19.5081 15.2506C18.9442 15.3106 18.3202 15.3946 17.7803 15.5506C17.6963 15.5746 17.6003 15.5266 17.5763 15.4426C17.5523 15.3466 17.6003 15.2626 17.6963 15.2266C18.2363 15.0707 18.9202 14.9867 19.4841 14.9387ZM17.6963 17.2784C18.2363 17.1224 18.9202 17.0264 19.4841 16.9784C20.7919 16.8584 22.1238 16.9424 23.3956 17.2784C23.4916 17.3024 23.5396 17.3984 23.5156 17.4824C23.4916 17.5663 23.3956 17.6263 23.3116 17.6023C21.5958 17.1464 19.5321 17.1584 17.7923 17.6023H17.7443C17.6723 17.6023 17.6003 17.5543 17.5763 17.4824C17.5523 17.3984 17.6003 17.3024 17.6963 17.2784ZM19.4841 19.0182C20.7919 18.9102 22.1238 18.9942 23.3956 19.3301C23.4916 19.3421 23.5396 19.4381 23.5156 19.5221C23.4916 19.5941 23.4316 19.6421 23.3596 19.6421H23.3116C22.0878 19.3061 20.7799 19.2221 19.5081 19.3421C18.9442 19.3901 18.3202 19.4861 17.7803 19.6421C17.6963 19.6661 17.6003 19.6181 17.5763 19.5341C17.5523 19.4381 17.6003 19.3541 17.6963 19.3181C18.2363 19.1621 18.9202 19.0782 19.4841 19.0182ZM7.06565 9.31138V21.9698L7.25762 21.9218C8.08552 21.7538 8.93741 21.6458 9.77731 21.5738C11.6971 21.4059 13.7368 21.4659 15.6206 21.9098L15.8366 21.9578V9.31138L15.7046 9.27539C13.1489 8.65146 9.75331 8.68746 7.18563 9.28738L7.06565 9.31138ZM8.70944 11.4591H8.66145C8.58946 11.4591 8.51747 11.4111 8.50547 11.3391C8.48147 11.2551 8.52947 11.1591 8.61346 11.1352C9.15339 10.9792 9.8373 10.8832 10.4012 10.8352C11.7091 10.7272 13.0529 10.8112 14.3127 11.1352C14.4087 11.1591 14.4567 11.2551 14.4327 11.3391C14.4087 11.4351 14.3247 11.4831 14.2288 11.4591C12.513 11.0032 10.4492 11.0152 8.70944 11.4591ZM8.61346 13.1869C9.15339 13.0309 9.8373 12.9349 10.4012 12.8869C11.7091 12.7669 13.0529 12.8509 14.3127 13.1869C14.4087 13.2109 14.4567 13.3069 14.4327 13.3909C14.4087 13.4749 14.3247 13.5349 14.2288 13.5109C12.513 13.0549 10.4492 13.0669 8.70944 13.5109H8.66145C8.58946 13.5109 8.51747 13.4629 8.50547 13.3909C8.48147 13.3069 8.52947 13.2109 8.61346 13.1869ZM8.61346 15.2266C9.15339 15.0707 9.8373 14.9867 10.4012 14.9387C11.7091 14.8187 13.0529 14.9027 14.3127 15.2386C14.4087 15.2626 14.4567 15.3466 14.4327 15.4426C14.4087 15.5266 14.3247 15.5746 14.2288 15.5506C12.513 15.1067 10.4492 15.1187 8.70944 15.5506C8.69744 15.5626 8.67345 15.5626 8.66145 15.5626C8.58946 15.5626 8.51747 15.5026 8.50547 15.4426C8.48147 15.3466 8.52947 15.2626 8.61346 15.2266ZM8.61346 17.2784C9.15339 17.1224 9.8373 17.0264 10.4012 16.9784C11.7091 16.8584 13.0529 16.9424 14.3127 17.2784C14.4087 17.3024 14.4567 17.3984 14.4327 17.4824C14.4087 17.5663 14.3247 17.6263 14.2288 17.6023C12.513 17.1464 10.4492 17.1584 8.70944 17.6023H8.66145C8.58946 17.6023 8.51747 17.5543 8.50547 17.4824C8.48147 17.3984 8.52947 17.3024 8.61346 17.2784ZM10.4012 19.0182C11.7091 18.9102 13.0529 18.9942 14.3127 19.3301C14.4087 19.3421 14.4567 19.4381 14.4327 19.5221C14.4207 19.5941 14.3487 19.6421 14.2767 19.6421H14.2408C13.0049 19.3061 11.6971 19.2221 10.4252 19.3421C9.8733 19.3901 9.24938 19.4861 8.70944 19.6421C8.61346 19.6661 8.52947 19.6181 8.50547 19.5341C8.48147 19.4381 8.52947 19.3541 8.61346 19.3181C9.15339 19.1621 9.8373 19.0782 10.4012 19.0182Z" fill="white"/>
</g>
<defs>
<clipPath id="clip0_1858_4414">
<rect width="32" height="32" fill="white"/>
</clipPath>
</defs>
</svg>
