<svg width="33" height="33" viewBox="0 0 33 33" fill="none" xmlns="http://www.w3.org/2000/svg">
<g clip-path="url(#clip0_1858_4410)">
<path d="M6.75 20.705H10.5C11.1904 20.705 11.75 20.1454 11.75 19.455C11.75 18.7647 11.1904 18.205 10.5 18.205H6.75C6.05963 18.205 5.5 18.7647 5.5 19.455C5.5 20.1454 6.05963 20.705 6.75 20.705ZM6.75 15.705H10.5C11.1904 15.705 11.75 15.1454 11.75 14.455C11.75 13.7647 11.1904 13.205 10.5 13.205H6.75C6.05963 13.205 5.5 13.7647 5.5 14.455C5.5 15.1454 6.05963 15.705 6.75 15.705ZM14.0901 19.455C14.0901 20.1454 14.6497 20.705 15.3401 20.705C17.9539 20.705 20.4113 19.6872 22.2595 17.8389L31.4007 8.69678C32.8662 7.23134 32.8665 4.85916 31.4007 3.39347C29.9387 1.93134 27.5596 1.93134 26.0974 3.39347L16.9562 12.5356C15.108 14.3839 14.0901 16.8412 14.0901 19.455ZM27.8653 5.16128C28.3526 4.67391 29.1457 4.67391 29.633 5.16128C30.1215 5.64966 30.1217 6.44047 29.633 6.92903L20.4917 16.0712C19.4468 17.1162 18.1402 17.8046 16.7197 18.0754C16.9905 16.655 17.679 15.3484 18.7239 14.3034L27.8653 5.16128Z" fill="#019267"/>
<path d="M4.25 30.7051C5.17226 30.7056 6.06227 30.3657 6.7495 29.7507L8.47744 28.2051H21.25C24.6963 28.2051 27.5 25.4013 27.5 21.9551V19.1511C27.5 18.4608 26.9404 17.9011 26.25 17.9011C25.5596 17.9011 25 18.4608 25 19.1511V21.9551C25 24.0228 23.3177 25.7051 21.25 25.7051H8C7.69251 25.7051 7.39581 25.8184 7.16663 26.0234L5.083 27.8872C4.85394 28.0921 4.55733 28.2053 4.25 28.2051C3.56075 28.2051 3 27.6443 3 26.9551V11.9551C3 9.88733 4.68225 8.20508 6.75 8.20508H17.2343C17.9247 8.20508 18.4843 7.64545 18.4843 6.95508C18.4843 6.2647 17.9247 5.70508 17.2343 5.70508H6.75C3.30369 5.70508 0.5 8.50883 0.5 11.9551V26.9551C0.5 29.0228 2.18225 30.7051 4.25 30.7051Z" fill="#019267"/>
</g>
<defs>
<clipPath id="clip0_1858_4410">
<rect width="32" height="32" fill="white" transform="translate(0.5 0.5)"/>
</clipPath>
</defs>
</svg>
