<svg width="32" height="32" viewBox="0 0 32 32" fill="none" xmlns="http://www.w3.org/2000/svg">
<g clip-path="url(#clip0_1758_2374)">
<path d="M31.6117 11.3093H22.2657C22.2852 11.0654 22.258 10.8149 22.1788 10.57C21.9549 9.88754 21.3734 9.39953 20.6634 9.29676L18.5536 8.99035L17.6105 7.0805C17.3041 6.45947 16.6583 6.07422 15.9245 6.07422C15.1906 6.07422 14.5448 6.45947 14.2403 7.07962L13.2972 8.99041L11.191 9.29589C10.4755 9.39953 9.89395 9.88942 9.67195 10.5756C9.59349 10.818 9.56669 11.0667 9.58616 11.3093H0.388197C0.162757 11.7227 0.03125 12.1924 0.03125 12.6808V29.1817C0.03125 29.6137 0.125183 30.0271 0.313113 30.384L1.64691 31.7178C2.00385 31.9058 2.41722 31.9997 2.84925 31.9997H29.1506C29.5827 31.9997 29.996 31.9057 30.353 31.7178L31.6868 30.384C31.8747 30.0271 31.9686 29.6137 31.9686 29.1817V12.6807C31.9686 12.1923 31.8371 11.7226 31.6117 11.3093Z" fill="url(#paint0_linear_1758_2374)"/>
<path d="M7.95856 24.2599L0.3125 30.3843C0.575451 30.9667 1.06391 31.455 1.64629 31.7181L9.12346 25.7252C9.5367 25.4058 9.59313 24.8235 9.27369 24.4101C8.95432 24.0156 8.37193 23.9404 7.95856 24.2599ZM24.0401 24.2599C23.6267 23.9404 23.0443 24.0156 22.725 24.4101C22.4056 24.8235 22.462 25.4059 22.8753 25.7252L30.3524 31.7181C30.9348 31.4551 31.4233 30.9667 31.6862 30.3843L24.0401 24.2599ZM30.8409 10.4267L17.6276 0.563648C16.6318 -0.187883 15.2416 -0.187883 14.2458 0.563648L1.15778 10.4267C0.838465 10.6709 0.575388 10.9714 0.387584 11.3096L14.8096 22.1683C15.4859 22.6756 16.3876 22.6756 17.0639 22.1683L31.6111 11.3096C31.4233 10.9714 31.1602 10.6709 30.8409 10.4267ZM21.048 11.828L19.1675 13.6608L19.6115 16.2485C19.6721 16.6008 19.5271 16.9567 19.2382 17.1668C18.947 17.3794 18.5611 17.4036 18.2493 17.2383L15.9248 16.0174L13.6021 17.2383C13.2875 17.4053 12.9022 17.3787 12.6123 17.1668C12.3234 16.9567 12.1784 16.6008 12.239 16.2485L12.682 13.6608L10.8024 11.828C10.5465 11.5785 10.4547 11.2051 10.5648 10.8648C10.6758 10.5254 10.9694 10.2777 11.3234 10.2263L13.9204 9.84928L15.0827 7.49544C15.2405 7.17437 15.5826 7.01387 15.9247 7.01387C16.2669 7.01387 16.6091 7.17437 16.7668 7.49544L17.9291 9.84928L20.5269 10.2263C20.881 10.2777 21.1746 10.5254 21.2855 10.8648C21.3957 11.2051 21.3039 11.5785 21.048 11.828Z" fill="url(#paint1_linear_1758_2374)"/>
</g>
<defs>
<linearGradient id="paint0_linear_1758_2374" x1="15.9999" y1="31.9997" x2="15.9999" y2="6.07422" gradientUnits="userSpaceOnUse">
<stop stop-color="#00B59C"/>
<stop offset="1" stop-color="#9CFFAC"/>
</linearGradient>
<linearGradient id="paint1_linear_1758_2374" x1="15.9993" y1="31.7181" x2="15.9993" y2="-1.51244e-05" gradientUnits="userSpaceOnUse">
<stop stop-color="#C3FFE8"/>
<stop offset="0.9973" stop-color="#F0FFF4"/>
</linearGradient>
<clipPath id="clip0_1758_2374">
<rect width="32" height="32" fill="white"/>
</clipPath>
</defs>
</svg>
