<svg width="32" height="32" viewBox="0 0 32 32" fill="none" xmlns="http://www.w3.org/2000/svg">
<path d="M29.1425 28.5703C29.8618 28.5703 30.4851 28.3328 31.0149 27.8638L21.9488 18.7974C21.7313 18.9531 21.5205 19.1046 21.3213 19.2486C20.6428 19.7485 20.0922 20.1386 19.6693 20.4181C19.2466 20.6982 18.6841 20.9838 17.9819 21.2753C17.2793 21.5672 16.6247 21.7127 16.0174 21.7127H15.9996H15.9819C15.3746 21.7127 14.72 21.5672 14.0174 21.2753C13.3148 20.9838 12.7523 20.6982 12.33 20.4181C11.9072 20.1386 11.3568 19.7485 10.678 19.2486C10.4888 19.1099 10.279 18.9578 10.0522 18.7949L0.984375 27.8638C1.51417 28.3328 2.13785 28.5703 2.8571 28.5703H29.1425Z" fill="#019267"/>
<path d="M1.80376 13.0889C1.12536 12.6366 0.523752 12.1186 0 11.5352V25.329L7.99083 17.3382C6.39221 16.2221 4.33247 14.8073 1.80376 13.0889Z" fill="#019267"/>
<path d="M30.2137 13.0889C27.7814 14.7352 25.7142 16.1524 24.0117 17.3414L31.9994 25.3294V11.5352C31.4872 12.1069 30.8921 12.6245 30.2137 13.0889Z" fill="#019267"/>
<path d="M29.1423 3.42773H2.85696C1.93994 3.42773 1.23493 3.7374 0.741038 4.35608C0.246742 4.97505 0 5.74915 0 6.6775C0 7.42736 0.327439 8.23986 0.982028 9.11522C1.63662 9.99023 2.33315 10.6775 3.07128 11.1775C3.47594 11.4634 4.69622 12.3117 6.73215 13.7222C7.83118 14.4838 8.78695 15.1476 9.60828 15.7205C10.3084 16.2083 10.9121 16.6307 11.4106 16.9813C11.4678 17.0214 11.5578 17.0858 11.6773 17.1712C11.8059 17.2636 11.9688 17.3809 12.1697 17.526C12.5566 17.8058 12.878 18.032 13.1339 18.2047C13.3896 18.3776 13.6993 18.5706 14.0626 18.785C14.4257 18.9991 14.7681 19.1601 15.0895 19.2672C15.411 19.3742 15.7086 19.4279 15.9823 19.4279H16.0001H16.0179C16.2916 19.4279 16.5892 19.3742 16.9107 19.2672C17.2321 19.1601 17.5742 18.9995 17.9375 18.785C18.3005 18.5706 18.6098 18.3772 18.8663 18.2047C19.1223 18.032 19.4437 17.8058 19.8306 17.526C20.0311 17.3809 20.1939 17.2636 20.3226 17.1715C20.4421 17.0857 20.5321 17.0218 20.5896 16.9813C20.978 16.7111 21.5831 16.2904 22.3967 15.7254C23.8772 14.6968 26.0575 13.1828 28.9468 11.1775C29.8158 10.5705 30.5417 9.83808 31.1252 8.98119C31.7077 8.12431 31.9997 7.22547 31.9997 6.28499C31.9997 5.49921 31.7165 4.82685 31.1515 4.26684C30.5859 3.70753 29.9161 3.42773 29.1423 3.42773Z" fill="#019267"/>
</svg>
