<svg width="20" height="20" viewBox="0 0 20 20" fill="none" xmlns="http://www.w3.org/2000/svg">
<g clip-path="url(#clip0_1710_4615)">
<path d="M5.74366 14.2936L5.02366 13.5736L6.79116 11.8053L7.51116 12.5253C8.65199 13.6653 10.5087 13.6661 11.6495 12.5253L16.6537 7.52195C17.7945 6.38112 17.7945 4.52445 16.6537 3.38362C15.6578 2.38779 14.1187 2.23529 12.9845 2.97612C12.1728 2.65945 11.2995 2.49279 10.4012 2.49279H10.3995C10.2053 2.49279 10.012 2.50112 9.82116 2.51612L10.7478 1.58945C11.8062 0.53112 13.1953 0.00195312 14.5853 0.00195312C15.9745 0.00195312 17.2828 0.482787 18.4887 1.68945C20.5337 3.81029 20.5137 7.19779 18.422 9.28945L13.4178 14.2928C12.3595 15.3511 10.9703 15.8795 9.58116 15.8795C8.19199 15.8795 6.80199 15.3503 5.74449 14.2928L5.74366 14.2936ZM1.52199 18.312C2.79616 19.5861 4.03783 20.0003 5.42699 19.9995C6.81616 19.9995 8.20533 19.4703 9.26199 18.4128L10.1887 17.4861C9.99699 17.5011 9.80449 17.5095 9.61033 17.5095H9.60866C8.71033 17.5095 7.83699 17.3436 7.02533 17.0261C5.89199 17.767 4.35199 17.6136 3.35616 16.6178C2.21533 15.477 2.21533 13.6203 3.35616 12.4795L8.36033 7.47612C9.50116 6.33529 11.3578 6.33529 12.4987 7.47612L13.2187 8.19612L14.9862 6.42779L14.2662 5.70779C12.1512 3.59279 8.70866 3.59195 6.59283 5.70779L1.58866 10.712C-0.503007 12.8036 -0.523007 16.1911 1.52199 18.312Z" fill="#F45050"/>
</g>
<defs>
<clipPath id="clip0_1710_4615">
<rect width="20" height="20" fill="white"/>
</clipPath>
</defs>
</svg>
