<svg width="285" height="56" viewBox="0 0 285 56" fill="none" xmlns="http://www.w3.org/2000/svg">
<g clip-path="url(#clip0_1704_1565)">
<path d="M10.5869 41.1676C10.5869 41.1676 10.5756 41.106 10.5448 41.004C10.5125 40.902 10.4624 40.7595 10.3848 40.5959C10.2248 40.2704 9.95483 39.8607 9.4812 39.5158C9.24681 39.3409 8.95584 39.1838 8.60507 39.0575C8.25591 38.9295 7.84047 38.834 7.34583 38.787C6.363 38.6915 5.06497 38.7838 3.3418 39.2307C3.3418 39.2307 3.60528 39.6081 4.04658 40.1101C4.27127 40.3595 4.54608 40.638 4.85159 40.915C5.16357 41.1903 5.5095 41.4623 5.88129 41.6988C6.62811 42.1732 7.46868 42.5036 8.29308 42.4728C9.11587 42.4453 9.89664 42.0518 10.5869 41.1692V41.1676Z" fill="url(#paint0_radial_1704_1565)"/>
<path d="M11.1896 40.8112C11.1896 40.8112 11.1411 40.7739 11.0684 40.6978C10.994 40.6233 10.8987 40.51 10.8017 40.3594C10.6061 40.0614 10.4121 39.6096 10.4121 39.0363C10.4153 38.748 10.4622 38.4322 10.5867 38.0921C10.7128 37.7504 10.9116 37.3845 11.2042 37.0039C11.7958 36.2379 12.7786 35.4104 14.3159 34.5488C14.3159 34.5488 14.3644 34.8792 14.3709 35.3942C14.3773 35.65 14.3806 35.948 14.3596 36.2768C14.345 36.6006 14.3111 36.9537 14.248 37.3148C14.1284 38.0322 13.8956 38.7917 13.4382 39.4314C12.9775 40.0711 12.284 40.6152 11.188 40.8112H11.1896Z" fill="url(#paint1_radial_1704_1565)"/>
<path d="M7.86917 35.4135C7.86917 35.4135 7.86917 35.352 7.85624 35.2467C7.84493 35.1415 7.81421 34.9941 7.76734 34.8192C7.71884 34.6443 7.6461 34.4435 7.53133 34.2362C7.41656 34.0289 7.26138 33.8135 7.06255 33.6014C6.86049 33.3909 6.60347 33.1852 6.27532 33.0022C5.94556 32.8192 5.56245 32.6524 5.08236 32.5228C4.60549 32.3933 4.03973 32.2977 3.37212 32.2524C2.70613 32.2071 1.94476 32.2103 1.06055 32.2848C1.06055 32.2848 1.10742 32.3901 1.19795 32.5666C1.28524 32.7447 1.43072 32.9876 1.60853 33.2726C1.7912 33.556 2.00134 33.8799 2.26483 34.2006C2.5267 34.5212 2.82251 34.8467 3.14419 35.1415C3.80695 35.7261 4.56508 36.1892 5.38141 36.2929C6.19288 36.4014 7.03345 36.1585 7.86917 35.4135Z" fill="url(#paint2_radial_1704_1565)"/>
<path d="M8.52616 35.1691C8.52616 35.1691 8.48575 35.1237 8.42594 35.0363C8.36775 34.9488 8.28692 34.8225 8.21903 34.6573C8.15114 34.4921 8.0881 34.2897 8.05253 34.0598C8.01697 33.8282 8.00727 33.5691 8.06223 33.284C8.11396 33.0006 8.2158 32.6962 8.392 32.382C8.56496 32.0679 8.83168 31.7391 9.18569 31.412C9.54132 31.0849 9.99231 30.7577 10.5629 30.4403C11.1352 30.1213 11.8335 29.812 12.6644 29.5156C12.6644 29.5156 12.6417 29.8508 12.5771 30.3545C12.5447 30.6071 12.4817 30.9051 12.4154 31.2241C12.3475 31.5432 12.257 31.8865 12.1309 32.2363C11.9014 32.9278 11.5361 33.6484 10.9816 34.2071C10.4191 34.7642 9.63992 35.1707 8.52455 35.1691H8.52616Z" fill="url(#paint3_radial_1704_1565)"/>
<path d="M6.1617 29.2843C6.1617 29.2843 6.20534 29.0398 6.15846 28.6803C6.12452 28.3175 6.01136 27.8414 5.6719 27.3572C5.34699 26.8697 4.81355 26.3709 3.9067 25.945C3.01925 25.5191 1.7681 25.158 -0.00195312 24.9863C-0.00195312 24.9863 0.11605 25.4365 0.358523 26.0681C0.481375 26.3823 0.654339 26.7386 0.849934 27.1062C1.04876 27.4722 1.27184 27.8495 1.5531 28.196C1.82791 28.5442 2.1318 28.8665 2.46318 29.1321C2.79618 29.3977 3.1712 29.6033 3.55916 29.7264C4.34154 29.9742 5.21121 29.8754 6.16008 29.2843H6.1617Z" fill="url(#paint4_radial_1704_1565)"/>
<path d="M6.84992 29.1548C6.84992 29.1548 6.7206 28.9475 6.6317 28.5993C6.5541 28.2511 6.52662 27.7604 6.71252 27.2211C6.91135 26.6819 7.33972 26.094 8.14149 25.579C8.96266 25.0608 10.1686 24.622 11.9095 24.3418C11.9095 24.3418 11.84 24.6624 11.6687 25.1402C11.5846 25.3799 11.4941 25.6568 11.3648 25.9564C11.2387 26.2543 11.077 26.575 10.9089 26.894C10.7343 27.2131 10.5258 27.5321 10.2785 27.8284C10.0328 28.1248 9.76282 28.3985 9.43629 28.6252C8.78647 29.0754 7.95075 29.3458 6.85154 29.1531L6.84992 29.1548Z" fill="url(#paint5_radial_1704_1565)"/>
<path d="M5.55469 22.9455C5.55469 22.9455 5.5757 22.8872 5.59833 22.7835C5.61935 22.6799 5.65168 22.5325 5.66784 22.3511C5.70179 21.9884 5.66784 21.4993 5.4286 20.96C5.20714 20.4208 4.76908 19.8297 3.95922 19.2402C3.16714 18.654 2.00812 18.0629 0.302734 17.5576C0.302734 17.5576 0.331831 18.024 0.449834 18.6928C0.511261 19.0264 0.616332 19.4119 0.740801 19.8119C0.803844 20.0111 0.874969 20.2151 0.954177 20.4175C1.03338 20.62 1.11906 20.8224 1.22575 21.02C1.43427 21.4151 1.67513 21.7908 1.95478 22.1147C2.0938 22.2766 2.24251 22.4256 2.40093 22.5584C2.55934 22.6912 2.73554 22.8078 2.91659 22.9034C3.64562 23.292 4.51852 23.3519 5.55469 22.9439V22.9455Z" fill="url(#paint6_radial_1704_1565)"/>
<path d="M6.25423 22.9443C6.25423 22.9443 6.23159 22.8876 6.20411 22.7856C6.17502 22.6836 6.15239 22.5378 6.14754 22.3597C6.13784 22.0034 6.19118 21.5144 6.47407 21.0204C6.77635 20.5281 7.30009 20.031 8.18592 19.6779C9.08954 19.3249 10.3585 19.1208 12.1204 19.1759C12.1204 19.1759 11.9911 19.4755 11.7309 19.9095C11.6032 20.1265 11.4642 20.3808 11.2831 20.648C11.1942 20.7824 11.0956 20.92 10.9905 21.0577C10.8838 21.197 10.7691 21.3362 10.6575 21.4755C10.4296 21.754 10.1677 22.0261 9.87191 22.2723C9.7232 22.3953 9.56802 22.5103 9.40152 22.6156C9.23664 22.7208 9.07014 22.8164 8.89071 22.8974C8.17461 23.2196 7.30332 23.3346 6.25423 22.9459V22.9443Z" fill="url(#paint7_radial_1704_1565)"/>
<path d="M6.14363 16.6051C6.14363 16.6051 6.27133 16.3929 6.35862 16.0415C6.45723 15.6917 6.5332 15.2091 6.39742 14.6342C6.25193 14.0561 5.96097 13.4002 5.28043 12.6715C4.60312 11.9443 3.55564 11.1411 1.98765 10.333C1.98765 10.333 1.97149 10.4464 1.95209 10.6456C1.93916 10.8464 1.93107 11.133 1.93431 11.4731C1.93754 11.8132 1.95532 12.2051 1.99897 12.618C2.01028 12.7217 2.0216 12.8253 2.03615 12.9306C2.05393 13.0375 2.07494 13.1443 2.09757 13.2512C2.14283 13.4666 2.19618 13.682 2.2576 13.8958C2.38207 14.3217 2.54534 14.7346 2.75386 15.1055C2.96886 15.4763 3.24366 15.8083 3.56049 16.0658C4.199 16.5856 5.04442 16.8107 6.14363 16.6051Z" fill="url(#paint8_radial_1704_1565)"/>
<path d="M6.8297 16.735C6.8297 16.735 6.78444 16.4937 6.82647 16.1391C6.87981 15.786 7.04146 15.3213 7.41325 14.8889C7.77373 14.4549 8.40901 14.0727 9.3498 13.8929C10.2954 13.7132 11.5611 13.7439 13.2973 14.1294C13.2973 14.1294 13.2488 14.1974 13.1566 14.3124C13.0709 14.429 12.9481 14.5941 12.7864 14.7869C12.6248 14.9796 12.426 15.1998 12.1932 15.4281C12.135 15.4848 12.0752 15.5431 12.0121 15.6014C11.954 15.6597 11.8941 15.7196 11.8311 15.7779C11.7066 15.8962 11.5741 16.0144 11.4334 16.1277C11.1522 16.3577 10.8402 16.5747 10.4991 16.7593C10.1645 16.9439 9.81373 17.0978 9.42901 17.1885C8.6628 17.3682 7.78504 17.3164 6.83132 16.735H6.8297Z" fill="url(#paint9_radial_1704_1565)"/>
<path d="M7.89863 10.4852C7.89863 10.4852 8.06998 10.3022 8.23001 9.97832C8.39166 9.65281 8.53552 9.18318 8.50643 8.59532C8.49511 8.01395 8.30114 7.30788 7.75638 6.47225C7.20193 5.63176 6.33872 4.68439 4.91784 3.61719C4.91784 3.61719 4.88389 3.72569 4.83378 3.91516C4.78528 4.10626 4.71254 4.37184 4.66728 4.70869C4.61717 5.04067 4.57029 5.42771 4.54766 5.84067C4.53635 6.04634 4.52988 6.25848 4.5315 6.47225C4.53311 6.68763 4.53958 6.9014 4.56867 7.12488C4.67536 8.00747 4.93723 8.86415 5.46097 9.48277C5.71961 9.79209 6.05907 10.048 6.46158 10.2196C6.86731 10.3945 7.33609 10.4836 7.89863 10.4884V10.4852Z" fill="url(#paint10_radial_1704_1565)"/>
<path d="M10.0387 6.63772C10.0387 6.63772 10.2876 6.65716 10.6416 6.5778C10.9957 6.50007 11.4515 6.31708 11.8896 5.92355C12.3341 5.54946 12.7609 4.95513 13.068 4.00452C13.3719 3.0442 13.5659 1.77618 13.5044 -0.00195312C13.5044 -0.00195312 13.3994 0.0401521 13.2199 0.119504C13.0421 0.200476 12.79 0.312217 12.499 0.487116C12.208 0.657156 11.8799 0.864444 11.5453 1.10412C11.3771 1.22396 11.209 1.35189 11.0442 1.48793C10.8793 1.62396 10.7144 1.76323 10.5608 1.92679C9.94171 2.56323 9.4406 3.30655 9.29027 4.10331C9.21268 4.49845 9.22722 4.92436 9.34684 5.34542C9.46646 5.77133 9.69116 6.19238 10.0419 6.63448L10.0387 6.63772Z" fill="url(#paint11_radial_1704_1565)"/>
<path d="M8.55078 10.7399C8.55078 10.7399 8.55725 10.497 8.67363 10.1602C8.79325 9.82335 9.01633 9.3861 9.45924 9.0282C9.92156 8.67841 10.5908 8.4031 11.5477 8.38691C12.4966 8.36586 13.7753 8.6282 15.4095 9.29541C15.4095 9.29541 15.3497 9.35695 15.2398 9.45735C15.1299 9.55938 14.9618 9.69703 14.7759 9.86707C14.5851 10.0339 14.3523 10.2217 14.084 10.4128C13.9498 10.5084 13.8076 10.6039 13.6573 10.6978C13.5069 10.7918 13.3453 10.8825 13.1917 10.9731C12.5645 11.3327 11.8209 11.6274 11.0224 11.6646C10.6199 11.6825 10.219 11.6387 9.80356 11.4962C9.39135 11.3553 8.95975 11.1124 8.55078 10.7399Z" fill="url(#paint12_radial_1704_1565)"/>
<path d="M11.5827 42.607C11.5503 42.5633 8.36587 38.1487 6.67341 31.3503C5.67766 27.3552 5.38184 23.3276 5.79243 19.3778C6.30647 14.4418 7.93103 9.61589 10.6241 5.03613L11.1171 5.32601C8.46932 9.82966 6.87062 14.573 6.36304 19.4216C5.95731 23.3017 6.24666 27.2612 7.22301 31.1884C8.88637 37.8863 12.0143 42.2264 12.045 42.2685L11.5843 42.607H11.5827Z" fill="url(#paint13_radial_1704_1565)"/>
<path d="M56.4121 41.1676C56.4121 41.1676 56.4234 41.106 56.4541 41.004C56.4865 40.902 56.5366 40.7595 56.6142 40.5959C56.7742 40.2704 57.0442 39.8607 57.5178 39.5158C57.7522 39.3409 58.0431 39.1838 58.3939 39.0575C58.7431 38.9295 59.1585 38.834 59.6532 38.787C60.636 38.6915 61.934 38.7838 63.6572 39.2307C63.6572 39.2307 63.3937 39.6081 62.9524 40.1101C62.7277 40.3595 62.4529 40.638 62.1474 40.915C61.8354 41.1903 61.4895 41.4623 61.1177 41.6988C60.3709 42.1732 59.5303 42.5036 58.7059 42.4728C57.8831 42.4453 57.1023 42.0518 56.4121 41.1692V41.1676Z" fill="url(#paint14_radial_1704_1565)"/>
<path d="M55.8111 40.8112C55.8111 40.8112 55.8596 40.7739 55.9324 40.6978C56.0067 40.6233 56.1021 40.51 56.1991 40.3594C56.3947 40.0614 56.5886 39.6096 56.5886 39.0363C56.5854 38.748 56.5385 38.4322 56.4141 38.0921C56.288 37.7504 56.0892 37.3845 55.7966 37.0039C55.2049 36.2379 54.2221 35.4104 52.6848 34.5488C52.6848 34.5488 52.6363 34.8792 52.6299 35.3942C52.6234 35.65 52.6202 35.948 52.6412 36.2768C52.6557 36.6006 52.6897 36.9537 52.7527 37.3148C52.8724 38.0322 53.1051 38.7917 53.5626 39.4314C54.0233 40.0711 54.7168 40.6152 55.8127 40.8112H55.8111Z" fill="url(#paint15_radial_1704_1565)"/>
<path d="M59.1309 35.4135C59.1309 35.4135 59.1309 35.352 59.1438 35.2467C59.1551 35.1415 59.1858 34.9941 59.2327 34.8192C59.2812 34.6443 59.3539 34.4435 59.4687 34.2362C59.5835 34.0289 59.7387 33.8135 59.9375 33.6014C60.1395 33.3909 60.3966 33.1852 60.7247 33.0022C61.0545 32.8192 61.4376 32.6524 61.9177 32.5228C62.3945 32.3933 62.9603 32.2977 63.6279 32.2524C64.2939 32.2071 65.0553 32.2103 65.9395 32.2848C65.9395 32.2848 65.8926 32.3901 65.8021 32.5666C65.7148 32.7447 65.5693 32.9876 65.3915 33.2726C65.2088 33.556 64.9987 33.8799 64.7352 34.2006C64.4733 34.5212 64.1775 34.8467 63.8558 35.1415C63.1931 35.7261 62.435 36.1892 61.6186 36.2929C60.8072 36.4014 59.9666 36.1585 59.1309 35.4135Z" fill="url(#paint16_radial_1704_1565)"/>
<path d="M58.4741 35.1691C58.4741 35.1691 58.5145 35.1237 58.5744 35.0363C58.6325 34.9488 58.7134 34.8225 58.7813 34.6573C58.8492 34.4921 58.9122 34.2897 58.9478 34.0598C58.9833 33.8282 58.993 33.5691 58.9381 33.284C58.8863 33.0006 58.7845 32.6962 58.6083 32.382C58.4353 32.0679 58.1686 31.7391 57.8146 31.412C57.459 31.0849 57.008 30.7577 56.4374 30.4403C55.8651 30.1213 55.1668 29.812 54.3359 29.5156C54.3359 29.5156 54.3586 29.8508 54.4232 30.3545C54.4556 30.6071 54.5186 30.9051 54.5849 31.2241C54.6528 31.5432 54.7433 31.8865 54.8678 32.2363C55.0973 32.9278 55.4626 33.6484 56.0171 34.2071C56.5796 34.7642 57.3588 35.1707 58.4741 35.1691Z" fill="url(#paint17_radial_1704_1565)"/>
<path d="M60.8388 29.2843C60.8388 29.2843 60.7951 29.0398 60.842 28.6803C60.876 28.3175 60.9891 27.8414 61.3286 27.3572C61.6535 26.8697 62.1869 26.3709 63.0938 25.945C63.9812 25.5191 65.2324 25.158 67.0024 24.9863C67.0024 24.9863 66.8844 25.4365 66.642 26.0681C66.5191 26.3823 66.3461 26.7386 66.1506 27.1062C65.9517 27.4722 65.7286 27.8495 65.4474 28.196C65.1726 28.5442 64.8687 28.8665 64.5373 29.1321C64.2043 29.3977 63.8293 29.6033 63.4413 29.7264C62.6589 29.9742 61.7893 29.8754 60.8404 29.2843H60.8388Z" fill="url(#paint18_radial_1704_1565)"/>
<path d="M60.1514 29.1548C60.1514 29.1548 60.2807 28.9475 60.3696 28.5993C60.4472 28.2511 60.4747 27.7604 60.2888 27.2211C60.09 26.6819 59.6616 26.094 58.8598 25.579C58.0386 25.0608 56.8327 24.622 55.0918 24.3418C55.0918 24.3418 55.1613 24.6624 55.3327 25.1402C55.4167 25.3799 55.5072 25.6568 55.6366 25.9564C55.7626 26.2543 55.9243 26.575 56.0924 26.894C56.267 27.2131 56.4755 27.5321 56.7228 27.8284C56.9685 28.1248 57.2385 28.3985 57.565 28.6252C58.2148 29.0754 59.0506 29.3458 60.1498 29.1531L60.1514 29.1548Z" fill="url(#paint19_radial_1704_1565)"/>
<path d="M61.4446 22.9455C61.4446 22.9455 61.4236 22.8872 61.401 22.7835C61.3799 22.6799 61.3476 22.5325 61.3314 22.3511C61.2975 21.9884 61.3314 21.4993 61.5707 20.96C61.7921 20.4208 62.2302 19.8297 63.0401 19.2402C63.8321 18.654 64.9912 18.0629 66.6966 17.5576C66.6966 17.5576 66.6675 18.024 66.5495 18.6928C66.488 19.0264 66.383 19.4119 66.2585 19.8119C66.1954 20.0111 66.1243 20.2151 66.0451 20.4175C65.9659 20.62 65.8802 20.8224 65.7735 21.02C65.565 21.4151 65.3242 21.7908 65.0445 22.1147C64.9055 22.2766 64.7568 22.4256 64.5984 22.5584C64.4399 22.6912 64.2637 22.8078 64.0827 22.9034C63.3537 23.292 62.4808 23.3519 61.4446 22.9439V22.9455Z" fill="url(#paint20_radial_1704_1565)"/>
<path d="M60.7451 22.9443C60.7451 22.9443 60.7678 22.8876 60.7952 22.7856C60.8243 22.6836 60.847 22.5378 60.8518 22.3597C60.8615 22.0034 60.8082 21.5144 60.5253 21.0204C60.223 20.5281 59.6993 20.031 58.8134 19.6779C57.9098 19.3249 56.6409 19.1208 54.8789 19.1759C54.8789 19.1759 55.0082 19.4755 55.2685 19.9095C55.3962 20.1265 55.5352 20.3808 55.7162 20.648C55.8052 20.7824 55.9038 20.92 56.0088 21.0577C56.1155 21.197 56.2303 21.3362 56.3418 21.4755C56.5697 21.754 56.8316 22.0261 57.1274 22.2723C57.2762 22.3953 57.4313 22.5103 57.5978 22.6156C57.7627 22.7208 57.9292 22.8164 58.1086 22.8974C58.8247 23.2196 59.696 23.3346 60.7451 22.9459V22.9443Z" fill="url(#paint21_radial_1704_1565)"/>
<path d="M60.8565 16.6051C60.8565 16.6051 60.7288 16.3929 60.6416 16.0415C60.543 15.6917 60.467 15.2091 60.6028 14.6342C60.7482 14.0561 61.0392 13.4002 61.7197 12.6715C62.3971 11.9443 63.4445 11.1411 65.0125 10.333C65.0125 10.333 65.0287 10.4464 65.0481 10.6456C65.061 10.8464 65.0691 11.133 65.0659 11.4731C65.0626 11.8132 65.0449 12.2051 65.0012 12.618C64.9899 12.7217 64.9786 12.8253 64.964 12.9306C64.9463 13.0375 64.9252 13.1443 64.9026 13.2512C64.8573 13.4666 64.804 13.682 64.7426 13.8958C64.6181 14.3217 64.4548 14.7346 64.2463 15.1055C64.0313 15.4763 63.7565 15.8083 63.4397 16.0658C62.8012 16.5856 61.9558 16.8107 60.8565 16.6051Z" fill="url(#paint22_radial_1704_1565)"/>
<path d="M60.1687 16.735C60.1687 16.735 60.214 16.4937 60.172 16.1391C60.1186 15.786 59.957 15.3213 59.5852 14.8889C59.2247 14.4549 58.5894 14.0727 57.6486 13.8929C56.703 13.7132 55.4373 13.7439 53.7012 14.1294C53.7012 14.1294 53.7497 14.1974 53.8418 14.3124C53.9275 14.429 54.0503 14.5941 54.212 14.7869C54.3736 14.9796 54.5725 15.1998 54.8052 15.4281C54.8634 15.4848 54.9232 15.5431 54.9863 15.6014C55.0445 15.6597 55.1043 15.7196 55.1673 15.7779C55.2918 15.8962 55.4243 16.0144 55.565 16.1277C55.8462 16.3577 56.1582 16.5747 56.4993 16.7593C56.8339 16.9439 57.1847 17.0978 57.5694 17.1885C58.3356 17.3682 59.2134 17.3164 60.1671 16.735H60.1687Z" fill="url(#paint23_radial_1704_1565)"/>
<path d="M59.0998 10.4852C59.0998 10.4852 58.9285 10.3022 58.7685 9.97832C58.6068 9.65281 58.463 9.18318 58.4921 8.59532C58.5034 8.01395 58.6973 7.30788 59.2421 6.47225C59.7966 5.63176 60.6598 4.68439 62.0806 3.61719C62.0806 3.61719 62.1146 3.72569 62.1647 3.91516C62.2132 4.10626 62.2859 4.37184 62.3312 4.70869C62.3813 5.04067 62.4282 5.42771 62.4508 5.84067C62.4621 6.04634 62.4686 6.25848 62.467 6.47225C62.4654 6.68763 62.4589 6.9014 62.4298 7.12488C62.3231 8.00747 62.0612 8.86415 61.5375 9.48277C61.2789 9.79209 60.9394 10.048 60.5369 10.2196C60.1312 10.3945 59.6624 10.4836 59.0998 10.4884V10.4852Z" fill="url(#paint24_radial_1704_1565)"/>
<path d="M56.9615 6.63772C56.9615 6.63772 56.7125 6.65716 56.3585 6.5778C56.0045 6.50007 55.5487 6.31708 55.1106 5.92355C54.6661 5.54946 54.2393 4.95513 53.9322 4.00452C53.6283 3.0442 53.4343 1.77618 53.4957 -0.00195312C53.4957 -0.00195312 53.6008 0.0401521 53.7802 0.119504C53.958 0.200476 54.2102 0.312217 54.5012 0.487116C54.7921 0.657156 55.1203 0.864444 55.4549 1.10412C55.623 1.22396 55.7911 1.35189 55.956 1.48793C56.1209 1.62396 56.2858 1.76323 56.4393 1.92679C57.0584 2.56323 57.5596 3.30655 57.7099 4.10331C57.7875 4.49845 57.7729 4.92436 57.6533 5.34542C57.5337 5.77133 57.309 6.19238 56.9582 6.63448L56.9615 6.63772Z" fill="url(#paint25_radial_1704_1565)"/>
<path d="M58.4486 10.7399C58.4486 10.7399 58.4421 10.497 58.3257 10.1602C58.2061 9.82335 57.983 9.3861 57.5401 9.0282C57.0778 8.67841 56.4086 8.4031 55.4516 8.38691C54.5027 8.36586 53.2241 8.6282 51.5898 9.29541C51.5898 9.29541 51.6497 9.35695 51.7596 9.45735C51.8695 9.55938 52.0376 9.69703 52.2235 9.86707C52.4143 10.0339 52.647 10.2217 52.9154 10.4128C53.0495 10.5084 53.1918 10.6039 53.3421 10.6978C53.4924 10.7918 53.6541 10.8825 53.8077 10.9731C54.4349 11.3327 55.1784 11.6274 55.977 11.6646C56.3795 11.6825 56.7804 11.6387 57.1958 11.4962C57.608 11.3553 58.0396 11.1124 58.4486 10.7399Z" fill="url(#paint26_radial_1704_1565)"/>
<path d="M55.4177 42.607L54.957 42.2685C54.9877 42.2248 58.1156 37.8863 59.779 31.1884C60.7554 27.2612 61.0431 23.3017 60.639 19.4216C60.133 14.5714 58.5327 9.82966 55.8849 5.32601L56.3779 5.03613C59.0694 9.61589 60.6955 14.4418 61.2096 19.3778C61.6202 23.3276 61.3244 27.3552 60.3286 31.3503C58.6345 38.1503 55.4501 42.5633 55.4177 42.607Z" fill="url(#paint27_radial_1704_1565)"/>
<path d="M45.1489 35.2519C51.5822 28.8068 51.5822 18.3573 45.1489 11.9122C38.7155 5.46712 28.285 5.46712 21.8517 11.9122C15.4184 18.3573 15.4184 28.8068 21.8517 35.2519C28.285 41.6969 38.7155 41.6969 45.1489 35.2519Z" fill="url(#paint28_linear_1704_1565)"/>
<path d="M47.9361 18.7704C47.9361 17.4053 47.7696 16.0806 47.4576 14.8125C44.5431 10.1664 39.3833 7.07812 33.5009 7.07812C24.4034 7.07812 17.0273 14.466 17.0273 23.5818C17.0273 24.947 17.1938 26.2716 17.5058 27.5397C20.4203 32.1858 25.5802 35.2741 31.4625 35.2741C40.5601 35.2741 47.9361 27.8862 47.9361 18.7704Z" fill="url(#paint29_linear_1704_1565)"/>
<path d="M45.2474 30.2288C44.874 28.9543 40.2347 24.232 37.2054 24.6077C34.1761 24.9818 35.7457 22.0587 33.7267 22.6207C31.7061 23.1826 30.8834 21.4595 32.2671 20.3713C33.6508 19.2846 36.5685 23.2198 36.5313 20.6709C36.4942 18.1219 38.1026 16.7729 40.3091 15.4611C42.5156 14.1494 41.1319 13.2879 39.2616 12.7259C37.3913 12.164 34.6223 14.713 33.4261 13.6636C32.2283 12.6142 35.8945 11.0773 37.9894 10.5154C40.0844 9.95345 41.5812 12.6142 43.264 12.6142C44.0528 12.6142 44.6833 12.266 45.131 11.8952C43.0539 9.81904 40.4255 8.29839 37.4851 7.56641C36.8175 8.02471 35.9947 8.42309 35.2834 8.28058C33.7866 7.98098 33.4374 7.48058 31.2438 9.72997C29.7583 11.2522 27.4257 9.88867 26.0743 8.849C23.8258 9.98908 21.8731 11.6296 20.3633 13.6263C21.1392 13.7526 22.143 13.8547 22.9885 13.7397C24.634 13.5146 25.6815 14.564 25.4568 16.7373C25.2321 18.9105 26.1681 19.4352 28.3374 22.4717C30.5067 25.5065 35.1331 25.2441 35.7571 26.4198C36.381 27.5939 34.2861 29.0676 36.4554 31.879C38.6247 34.6903 34.0985 38.4004 35.7813 38.8118C37.4641 39.2247 37.6888 35.8887 41.0931 34.7275C44.4974 33.5664 45.6192 31.5049 45.2458 30.2304L45.2474 30.2288Z" fill="url(#paint30_linear_1704_1565)"/>
<path d="M16.2969 43.1564C16.2969 43.1564 24.8772 41.8301 31.6777 51.524C32.3599 52.4973 32.6314 51.1208 33.5092 52.1621C33.5092 52.1621 29.5326 39.5904 16.2969 43.1564Z" fill="url(#paint31_radial_1704_1565)"/>
<path d="M50.7015 43.1564C50.7015 43.1564 42.1212 41.8301 35.3207 51.524C34.6385 52.4973 34.367 51.1208 33.4892 52.1621C33.4892 52.1621 37.4658 39.5904 50.7015 43.1564Z" fill="url(#paint32_radial_1704_1565)"/>
<path d="M33.4993 52.1623C33.4993 52.1623 22.2017 41.7542 9.31836 47.1664L11.6736 49.5259C11.6736 49.5259 23.0019 46.4733 33.4993 56.002V52.1623Z" fill="url(#paint33_radial_1704_1565)"/>
<path d="M33.5 52.1623C33.5 52.1623 44.7976 41.7542 57.681 47.1664L55.3258 49.5259C55.3258 49.5259 43.9974 46.4733 33.5 56.002V52.1623Z" fill="url(#paint34_radial_1704_1565)"/>
</g>
<path d="M92.5391 25.2525H88.6932L85.6911 20.3863L82.6889 25.2525H79L83.6504 18.0512L79.2747 11.2425H82.9832L85.7892 15.9517L88.497 11.2425H92.2055L87.8102 18.2867L92.5391 25.2525Z" fill="#20262E"/>
<path d="M98.884 16.7562L101.572 11.2425H105.183L100.552 19.7976V25.2525H97.2162V19.8957L92.5854 11.2425H96.2155L98.884 16.7562Z" fill="#20262E"/>
<path d="M116.34 25.2525H105.705V23.1333L112.121 13.9699H105.862V11.2425H116.183V13.3616L109.766 22.525H116.34V25.2525Z" fill="#20262E"/>
<path d="M132.244 21.1908C132.244 21.9887 132.047 22.7147 131.655 23.3688C131.262 24.0098 130.674 24.5199 129.889 24.8993C129.104 25.2656 128.116 25.4487 126.926 25.4487C126.377 25.4487 125.866 25.416 125.396 25.3506C124.925 25.2852 124.473 25.1936 124.042 25.0759C123.623 24.9451 123.211 24.7816 122.805 24.5853V21.5439C123.512 21.871 124.231 22.1457 124.964 22.3681C125.709 22.5904 126.422 22.7016 127.103 22.7016C127.534 22.7016 127.881 22.6493 128.143 22.5447C128.417 22.4269 128.614 22.2765 128.731 22.0934C128.862 21.8971 128.927 21.6748 128.927 21.4262C128.927 21.1253 128.823 20.8703 128.614 20.661C128.417 20.4386 128.123 20.2293 127.731 20.0331C127.338 19.8238 126.861 19.5883 126.298 19.3267C125.88 19.1435 125.467 18.9342 125.062 18.6988C124.669 18.4502 124.31 18.169 123.983 17.855C123.669 17.528 123.414 17.1421 123.217 16.6973C123.034 16.2395 122.943 15.7032 122.943 15.0883C122.943 14.2119 123.146 13.4793 123.551 12.8907C123.97 12.289 124.552 11.8311 125.297 11.5172C126.043 11.2032 126.919 11.0462 127.927 11.0462C128.751 11.0462 129.51 11.1378 130.203 11.3209C130.896 11.5041 131.57 11.7395 132.224 12.0273L131.164 14.637C130.536 14.3623 129.948 14.153 129.398 14.0091C128.862 13.8522 128.339 13.7737 127.829 13.7737C127.475 13.7737 127.181 13.826 126.946 13.9307C126.71 14.0222 126.534 14.1596 126.416 14.3427C126.298 14.5128 126.239 14.7155 126.239 14.951C126.239 15.2257 126.331 15.4677 126.514 15.677C126.697 15.8732 126.985 16.076 127.377 16.2853C127.77 16.4946 128.286 16.7497 128.927 17.0505C129.621 17.3645 130.216 17.7046 130.713 18.0709C131.21 18.4371 131.589 18.8688 131.851 19.3659C132.113 19.8499 132.244 20.4582 132.244 21.1908Z" fill="#20262E"/>
<path d="M139.022 25.4487C137.95 25.4487 137.021 25.259 136.236 24.8797C135.464 24.4872 134.869 23.8855 134.451 23.0745C134.045 22.2503 133.842 21.1973 133.842 19.9153C133.842 18.6072 134.071 17.5411 134.529 16.717C135 15.8798 135.647 15.2649 136.472 14.8725C137.296 14.4801 138.238 14.2838 139.297 14.2838C140.004 14.2838 140.638 14.3558 141.2 14.4997C141.776 14.6436 142.286 14.8267 142.731 15.0491L141.77 17.5411C141.312 17.3579 140.887 17.2075 140.494 17.0898C140.102 16.972 139.703 16.9132 139.297 16.9132C138.852 16.9132 138.473 17.0244 138.159 17.2468C137.845 17.4561 137.603 17.7831 137.433 18.2278C137.276 18.6726 137.198 19.2286 137.198 19.8957C137.198 20.5629 137.283 21.1123 137.453 21.5439C137.623 21.9625 137.865 22.2765 138.179 22.4858C138.493 22.6951 138.872 22.7997 139.317 22.7997C139.892 22.7997 140.429 22.7147 140.926 22.5447C141.436 22.3746 141.92 22.1457 142.378 21.8579V24.5657C141.933 24.8535 141.449 25.0759 140.926 25.2329C140.403 25.3768 139.768 25.4487 139.022 25.4487Z" fill="#20262E"/>
<path d="M148.036 12.9496C148.036 13.6036 148.016 14.1923 147.977 14.7155C147.938 15.2257 147.905 15.5985 147.879 15.834H148.056C148.291 15.4546 148.559 15.1537 148.86 14.9314C149.161 14.709 149.501 14.5455 149.881 14.4408C150.26 14.3362 150.665 14.2838 151.097 14.2838C151.843 14.2838 152.503 14.4212 153.079 14.6959C153.655 14.9706 154.106 15.3958 154.433 15.9713C154.773 16.5469 154.943 17.2991 154.943 18.2278V25.2525H151.627V19.1501C151.627 18.4044 151.503 17.8419 151.254 17.4626C151.006 17.0832 150.62 16.8936 150.096 16.8936C149.312 16.8936 148.769 17.1944 148.468 17.7962C148.18 18.3848 148.036 19.2286 148.036 20.3274V25.2525H144.72V10.3398H148.036V12.9496Z" fill="#20262E"/>
<path d="M167.758 19.8368C167.758 21.0403 167.542 22.0607 167.11 22.8979C166.679 23.7351 166.064 24.3695 165.266 24.8012C164.481 25.2329 163.539 25.4487 162.44 25.4487C161.42 25.4487 160.511 25.2329 159.713 24.8012C158.928 24.3564 158.307 23.7154 157.849 22.8782C157.404 22.041 157.182 21.0272 157.182 19.8368C157.182 18.0578 157.653 16.6908 158.594 15.7359C159.536 14.7679 160.838 14.2838 162.499 14.2838C163.533 14.2838 164.442 14.4997 165.227 14.9314C166.011 15.363 166.626 15.991 167.071 16.8151C167.529 17.6392 167.758 18.6464 167.758 19.8368ZM160.537 19.8368C160.537 20.504 160.602 21.0665 160.733 21.5243C160.864 21.9822 161.073 22.3288 161.361 22.5643C161.649 22.7867 162.022 22.8979 162.48 22.8979C162.95 22.8979 163.323 22.7867 163.598 22.5643C163.873 22.3288 164.075 21.9822 164.206 21.5243C164.337 21.0665 164.402 20.5105 164.402 19.8565C164.402 19.1762 164.337 18.6137 164.206 18.169C164.075 17.7242 163.866 17.3906 163.578 17.1683C163.304 16.9459 162.931 16.8347 162.46 16.8347C161.78 16.8347 161.289 17.0898 160.988 17.5999C160.687 18.097 160.537 18.8427 160.537 19.8368Z" fill="#20262E"/>
<path d="M180.06 19.8368C180.06 21.0403 179.844 22.0607 179.412 22.8979C178.981 23.7351 178.366 24.3695 177.568 24.8012C176.783 25.2329 175.841 25.4487 174.742 25.4487C173.722 25.4487 172.813 25.2329 172.015 24.8012C171.23 24.3564 170.609 23.7154 170.151 22.8782C169.706 22.041 169.484 21.0272 169.484 19.8368C169.484 18.0578 169.955 16.6908 170.896 15.7359C171.838 14.7679 173.14 14.2838 174.801 14.2838C175.835 14.2838 176.744 14.4997 177.529 14.9314C178.313 15.363 178.928 15.991 179.373 16.8151C179.831 17.6392 180.06 18.6464 180.06 19.8368ZM172.839 19.8368C172.839 20.504 172.904 21.0665 173.035 21.5243C173.166 21.9822 173.375 22.3288 173.663 22.5643C173.951 22.7867 174.324 22.8979 174.782 22.8979C175.252 22.8979 175.625 22.7867 175.9 22.5643C176.175 22.3288 176.377 21.9822 176.508 21.5243C176.639 21.0665 176.704 20.5105 176.704 19.8565C176.704 19.1762 176.639 18.6137 176.508 18.169C176.377 17.7242 176.168 17.3906 175.88 17.1683C175.606 16.9459 175.233 16.8347 174.762 16.8347C174.082 16.8347 173.591 17.0898 173.29 17.5999C172.989 18.097 172.839 18.8427 172.839 19.8368Z" fill="#20262E"/>
<path d="M185.651 25.2525H182.335V10.3398H185.651V25.2525Z" fill="#20262E"/>
<path d="M198.43 11.0462C199.254 11.0462 199.967 11.1705 200.569 11.419C201.183 11.6676 201.661 12.0339 202.001 12.5179C202.354 12.9888 202.531 13.5578 202.531 14.225C202.531 15.0883 202.276 15.8209 201.765 16.4226C201.255 17.0244 200.614 17.5542 199.843 18.012L202.197 20.2685C202.433 19.8761 202.642 19.4509 202.825 18.9931C203.021 18.5353 203.172 18.0643 203.276 17.5803H206.71C206.514 18.4175 206.213 19.2613 205.808 20.1115C205.415 20.9618 204.951 21.7205 204.414 22.3877L207.377 25.2525H203.198L202.178 24.2125C201.798 24.4611 201.412 24.6769 201.02 24.86C200.627 25.0432 200.189 25.1871 199.705 25.2917C199.221 25.3964 198.652 25.4487 197.998 25.4487C196.925 25.4487 196.01 25.2786 195.251 24.9385C194.492 24.5853 193.91 24.1013 193.505 23.4865C193.112 22.8717 192.916 22.1849 192.916 21.4262C192.916 20.7983 193.014 20.2489 193.21 19.778C193.42 19.307 193.714 18.8884 194.093 18.5222C194.486 18.1428 194.957 17.8027 195.506 17.5018C195.192 17.1617 194.937 16.8282 194.741 16.5011C194.545 16.161 194.401 15.8144 194.309 15.4612C194.218 15.108 194.172 14.7351 194.172 14.3427C194.172 13.6756 194.342 13.1 194.682 12.616C195.022 12.1189 195.513 11.733 196.154 11.4583C196.795 11.1836 197.553 11.0462 198.43 11.0462ZM197.351 19.4052C197.141 19.5621 196.958 19.7322 196.801 19.9153C196.657 20.0985 196.546 20.2881 196.468 20.4844C196.389 20.6806 196.35 20.903 196.35 21.1515C196.35 21.6355 196.526 22.028 196.88 22.3288C197.246 22.6166 197.704 22.7605 198.253 22.7605C198.659 22.7605 199.018 22.7082 199.332 22.6035C199.659 22.4989 199.941 22.3681 200.176 22.2111L197.351 19.4052ZM198.391 13.4009C198.103 13.4009 197.828 13.4859 197.566 13.6559C197.318 13.8129 197.194 14.0942 197.194 14.4997C197.194 14.8136 197.279 15.108 197.449 15.3827C197.619 15.6574 197.828 15.9255 198.077 16.1872C198.534 15.9255 198.888 15.6508 199.136 15.363C199.385 15.0622 199.509 14.7417 199.509 14.4016C199.509 14.0484 199.391 13.7933 199.156 13.6363C198.933 13.4793 198.678 13.4009 198.391 13.4009Z" fill="#20262E"/>
<path d="M220.175 13.8129C219.495 13.8129 218.912 13.9961 218.428 14.3623C217.944 14.7155 217.578 15.2257 217.33 15.8928C217.081 16.56 216.957 17.3579 216.957 18.2867C216.957 19.2286 217.075 20.0265 217.31 20.6806C217.545 21.3346 217.905 21.8317 218.389 22.1718C218.886 22.512 219.514 22.682 220.273 22.682C220.862 22.682 221.444 22.6101 222.019 22.4662C222.595 22.3092 223.203 22.113 223.844 21.8775V24.7031C223.229 24.9647 222.608 25.1544 221.98 25.2721C221.352 25.3898 220.672 25.4487 219.939 25.4487C218.461 25.4487 217.245 25.1544 216.29 24.5657C215.348 23.964 214.648 23.1268 214.19 22.0541C213.745 20.9684 213.523 19.706 213.523 18.2671C213.523 16.8543 213.778 15.6051 214.288 14.5193C214.811 13.4336 215.564 12.5833 216.545 11.9685C217.539 11.3536 218.755 11.0462 220.194 11.0462C220.875 11.0462 221.574 11.1313 222.294 11.3013C223.027 11.4714 223.726 11.7134 224.393 12.0273L223.354 14.6959C222.83 14.4474 222.307 14.2381 221.784 14.068C221.261 13.8979 220.724 13.8129 220.175 13.8129Z" fill="#20262E"/>
<path d="M236.492 19.8368C236.492 21.0403 236.276 22.0607 235.844 22.8979C235.413 23.7351 234.798 24.3695 234 24.8012C233.215 25.2329 232.273 25.4487 231.174 25.4487C230.154 25.4487 229.245 25.2329 228.447 24.8012C227.662 24.3564 227.041 23.7154 226.583 22.8782C226.138 22.041 225.916 21.0272 225.916 19.8368C225.916 18.0578 226.387 16.6908 227.328 15.7359C228.27 14.7679 229.572 14.2838 231.233 14.2838C232.267 14.2838 233.176 14.4997 233.961 14.9314C234.746 15.363 235.36 15.991 235.805 16.8151C236.263 17.6392 236.492 18.6464 236.492 19.8368ZM229.271 19.8368C229.271 20.504 229.336 21.0665 229.467 21.5243C229.598 21.9822 229.807 22.3288 230.095 22.5643C230.383 22.7867 230.756 22.8979 231.214 22.8979C231.685 22.8979 232.057 22.7867 232.332 22.5643C232.607 22.3288 232.81 21.9822 232.94 21.5243C233.071 21.0665 233.137 20.5105 233.137 19.8565C233.137 19.1762 233.071 18.6137 232.94 18.169C232.81 17.7242 232.6 17.3906 232.312 17.1683C232.038 16.9459 231.665 16.8347 231.194 16.8347C230.514 16.8347 230.023 17.0898 229.722 17.5999C229.422 18.097 229.271 18.8427 229.271 19.8368Z" fill="#20262E"/>
<path d="M242.083 25.2525H238.767V10.3398H242.083V25.2525Z" fill="#20262E"/>
<path d="M248.234 25.2525H244.918V10.3398H248.234V25.2525Z" fill="#20262E"/>
<path d="M255.72 14.2838C256.74 14.2838 257.616 14.4735 258.349 14.8529C259.095 15.2192 259.664 15.7686 260.056 16.5011C260.462 17.2206 260.664 18.1167 260.664 19.1893V20.7198H253.855C253.882 21.4262 254.111 21.9887 254.542 22.4073C254.974 22.8259 255.589 23.0352 256.387 23.0352C257.08 23.0352 257.708 22.9698 258.27 22.839C258.833 22.7082 259.415 22.4989 260.017 22.2111V24.6638C259.493 24.9385 258.931 25.1348 258.329 25.2525C257.728 25.3833 256.988 25.4487 256.112 25.4487C255.026 25.4487 254.058 25.2525 253.208 24.86C252.371 24.4676 251.71 23.8659 251.226 23.0548C250.755 22.2307 250.52 21.1908 250.52 19.935C250.52 18.653 250.736 17.5999 251.167 16.7758C251.599 15.9386 252.207 15.3173 252.992 14.9117C253.777 14.4931 254.686 14.2838 255.72 14.2838ZM255.778 16.5796C255.268 16.5796 254.843 16.7431 254.503 17.0702C254.176 17.3841 253.98 17.8877 253.914 18.581H257.623C257.623 18.2017 257.551 17.8616 257.407 17.5607C257.276 17.2598 257.073 17.0244 256.799 16.8543C256.524 16.6712 256.184 16.5796 255.778 16.5796Z" fill="#20262E"/>
<path d="M266.365 14.2838C267.072 14.2838 267.673 14.4212 268.17 14.6959C268.667 14.9706 269.08 15.35 269.407 15.834H269.485L269.74 14.4801H272.566V25.2721C272.566 26.2924 272.363 27.1493 271.957 27.8426C271.552 28.5359 270.937 29.0591 270.113 29.4123C269.289 29.7786 268.255 29.9617 267.013 29.9617C266.202 29.9617 265.463 29.916 264.795 29.8244C264.141 29.7328 263.507 29.5693 262.892 29.3338V26.6456C263.546 26.9203 264.2 27.1231 264.854 27.2539C265.508 27.3978 266.228 27.4698 267.013 27.4698C267.771 27.4698 268.334 27.2932 268.7 26.94C269.08 26.5999 269.269 26.0897 269.269 25.4095V25.1936C269.269 24.9974 269.276 24.7816 269.289 24.5461C269.315 24.3106 269.341 24.0817 269.367 23.8593H269.269C268.955 24.3695 268.556 24.7619 268.072 25.0366C267.588 25.3114 267 25.4487 266.306 25.4487C265.09 25.4487 264.122 24.9647 263.402 23.9967C262.696 23.0287 262.343 21.6551 262.343 19.8761C262.343 18.084 262.709 16.7039 263.442 15.7359C264.174 14.7679 265.149 14.2838 266.365 14.2838ZM267.523 16.8936C266.921 16.8936 266.463 17.1486 266.149 17.6588C265.848 18.169 265.698 18.9277 265.698 19.935C265.698 20.9422 265.848 21.6878 266.149 22.1718C266.45 22.6428 266.921 22.8782 267.562 22.8782C267.915 22.8782 268.21 22.8325 268.445 22.7409C268.694 22.6362 268.89 22.4793 269.034 22.27C269.191 22.0476 269.308 21.7729 269.387 21.4458C269.465 21.1188 269.505 20.7264 269.505 20.2685V19.8565C269.505 19.1893 269.439 18.6399 269.308 18.2082C269.178 17.7635 268.968 17.4364 268.681 17.2271C268.393 17.0047 268.007 16.8936 267.523 16.8936Z" fill="#20262E"/>
<path d="M280.055 14.2838C281.076 14.2838 281.952 14.4735 282.685 14.8529C283.43 15.2192 283.999 15.7686 284.392 16.5011C284.797 17.2206 285 18.1167 285 19.1893V20.7198H278.191C278.217 21.4262 278.446 21.9887 278.878 22.4073C279.31 22.8259 279.924 23.0352 280.722 23.0352C281.416 23.0352 282.044 22.9698 282.606 22.839C283.169 22.7082 283.751 22.4989 284.352 22.2111V24.6638C283.829 24.9385 283.267 25.1348 282.665 25.2525C282.063 25.3833 281.324 25.4487 280.448 25.4487C279.362 25.4487 278.394 25.2525 277.544 24.86C276.706 24.4676 276.046 23.8659 275.562 23.0548C275.091 22.2307 274.855 21.1908 274.855 19.935C274.855 18.653 275.071 17.5999 275.503 16.7758C275.935 15.9386 276.543 15.3173 277.328 14.9117C278.113 14.4931 279.022 14.2838 280.055 14.2838ZM280.114 16.5796C279.604 16.5796 279.179 16.7431 278.839 17.0702C278.512 17.3841 278.315 17.8877 278.25 18.581H281.959C281.959 18.2017 281.887 17.8616 281.743 17.5607C281.612 17.2598 281.409 17.0244 281.135 16.8543C280.86 16.6712 280.52 16.5796 280.114 16.5796Z" fill="#20262E"/>
<path d="M82.1018 35.7513C82.9558 35.7513 83.592 35.9397 84.0106 36.3164C84.4292 36.6848 84.6385 37.2666 84.6385 38.062V42.6457H83.6967L83.433 41.7038H83.3827C83.1902 41.9466 82.9893 42.1475 82.78 42.3066C82.579 42.4657 82.3446 42.5829 82.0767 42.6582C81.8172 42.7336 81.499 42.7712 81.1223 42.7712C80.7204 42.7712 80.3563 42.7001 80.0298 42.5577C79.7116 42.4071 79.4605 42.181 79.2763 41.8796C79.0921 41.5698 79 41.1847 79 40.7243C79 40.0378 79.2595 39.5145 79.7786 39.1545C80.306 38.7945 81.1056 38.5978 82.1772 38.5643L83.3325 38.5266V38.1499C83.3325 37.6476 83.2195 37.2959 82.9934 37.095C82.7674 36.8941 82.4493 36.7936 82.039 36.7936C81.6874 36.7936 81.3525 36.8439 81.0344 36.9443C80.7163 37.0448 80.4149 37.1662 80.1302 37.3085L79.7032 36.3415C80.0214 36.1741 80.3856 36.036 80.7958 35.9271C81.2144 35.8099 81.6497 35.7513 82.1018 35.7513ZM82.4158 39.4182C81.6456 39.4517 81.1097 39.5815 80.8084 39.8075C80.5153 40.0252 80.3688 40.335 80.3688 40.7368C80.3688 41.0885 80.4735 41.3438 80.6828 41.5029C80.9004 41.6619 81.1725 41.7415 81.499 41.7415C82.0265 41.7415 82.4618 41.595 82.8051 41.3019C83.1483 41.0089 83.32 40.5694 83.32 39.9834V39.3931L82.4158 39.4182Z" fill="#2C3333"/>
<path d="M94.5466 35.7513C94.6638 35.7513 94.7936 35.7597 94.9359 35.7764C95.0782 35.7848 95.1955 35.7973 95.2875 35.8141L95.1494 37.0573C95.0573 37.0322 94.9485 37.0113 94.8229 36.9945C94.6973 36.9778 94.5801 36.9694 94.4713 36.9694C94.1364 36.9694 93.8183 37.0532 93.5169 37.2206C93.2238 37.388 92.9852 37.6308 92.8011 37.949C92.6252 38.2587 92.5373 38.6355 92.5373 39.0792V42.6457H91.2062V35.8769H92.2611L92.4369 37.0825H92.4871C92.7048 36.7225 92.9852 36.4127 93.3285 36.1532C93.6717 35.8853 94.0778 35.7513 94.5466 35.7513Z" fill="#2C3333"/>
<path d="M99.5858 35.7513C100.18 35.7513 100.691 35.8769 101.118 36.128C101.545 36.3708 101.871 36.7225 102.097 37.1829C102.332 37.6434 102.449 38.1876 102.449 38.8155V39.5438H97.903C97.9198 40.2387 98.0998 40.7703 98.443 41.1387C98.7947 41.5071 99.2844 41.6912 99.9123 41.6912C100.348 41.6912 100.733 41.6536 101.068 41.5782C101.411 41.4945 101.763 41.3731 102.123 41.214V42.3191C101.788 42.4698 101.444 42.5829 101.093 42.6582C100.75 42.7336 100.339 42.7712 99.8621 42.7712C99.2091 42.7712 98.6314 42.6415 98.1291 42.3819C97.6268 42.1224 97.2333 41.7373 96.9486 41.2266C96.6724 40.7075 96.5342 40.0713 96.5342 39.3178C96.5342 38.5559 96.6598 37.9113 96.911 37.3838C97.1705 36.8564 97.5263 36.4546 97.9784 36.1783C98.4389 35.8936 98.9747 35.7513 99.5858 35.7513ZM99.5858 36.7811C99.1086 36.7811 98.7235 36.9359 98.4305 37.2457C98.1458 37.5555 97.9784 37.995 97.9282 38.5643H101.118C101.118 38.2127 101.063 37.9029 100.955 37.635C100.846 37.3671 100.678 37.1578 100.452 37.0071C100.226 36.8564 99.9374 36.7811 99.5858 36.7811Z" fill="#2C3333"/>
<path d="M106.012 42.6457L103.45 35.8769H104.857L106.263 39.8327C106.322 40.0001 106.381 40.1885 106.439 40.3978C106.506 40.6071 106.565 40.808 106.615 41.0006C106.665 41.1931 106.699 41.3605 106.715 41.5029H106.766C106.791 41.3605 106.828 41.1931 106.879 41.0006C106.937 40.7996 107 40.5987 107.067 40.3978C107.134 40.1885 107.193 40.0001 107.243 39.8327L108.649 35.8769H110.056L107.481 42.6457H106.012Z" fill="#2C3333"/>
<path d="M117.696 39.255C117.696 40.0001 117.566 40.6364 117.306 41.1638C117.047 41.6912 116.674 42.0931 116.189 42.3694C115.712 42.6373 115.146 42.7712 114.493 42.7712C113.891 42.7712 113.351 42.6373 112.873 42.3694C112.396 42.0931 112.02 41.6912 111.743 41.1638C111.475 40.6364 111.341 40.0001 111.341 39.255C111.341 38.1331 111.626 37.2708 112.195 36.668C112.765 36.0569 113.543 35.7513 114.531 35.7513C115.151 35.7513 115.695 35.8894 116.164 36.1657C116.641 36.4336 117.013 36.8271 117.281 37.3462C117.558 37.8652 117.696 38.5015 117.696 39.255ZM112.71 39.255C112.71 39.7573 112.773 40.1927 112.899 40.561C113.024 40.921 113.221 41.1973 113.489 41.3899C113.757 41.5824 114.1 41.6787 114.519 41.6787C114.937 41.6787 115.28 41.5824 115.548 41.3899C115.816 41.1973 116.013 40.921 116.139 40.561C116.264 40.1927 116.327 39.7573 116.327 39.255C116.327 38.7359 116.26 38.3006 116.126 37.949C116 37.5973 115.804 37.3294 115.536 37.1452C115.276 36.9527 114.933 36.8564 114.506 36.8564C113.878 36.8564 113.422 37.0657 113.137 37.4843C112.853 37.9029 112.71 38.4931 112.71 39.255Z" fill="#2C3333"/>
<path d="M121.342 42.6457H120.011V33.1016H121.342V42.6457Z" fill="#2C3333"/>
<path d="M129.888 35.8769V42.6457H128.82L128.632 41.754H128.569C128.427 41.9885 128.242 42.181 128.016 42.3317C127.79 42.4824 127.543 42.5912 127.275 42.6582C127.008 42.7336 126.731 42.7712 126.447 42.7712C125.919 42.7712 125.471 42.6875 125.103 42.5201C124.743 42.3443 124.467 42.0764 124.274 41.7164C124.09 41.348 123.998 40.8792 123.998 40.3099V35.8769H125.342V40.1089C125.342 40.6364 125.45 41.0299 125.668 41.2894C125.894 41.5489 126.242 41.6787 126.71 41.6787C127.405 41.6787 127.887 41.4736 128.155 41.0633C128.422 40.6531 128.556 40.0671 128.556 39.3052V35.8769H129.888Z" fill="#2C3333"/>
<path d="M135.035 41.6912C135.211 41.6912 135.391 41.6745 135.575 41.641C135.759 41.6075 135.918 41.5698 136.052 41.528V42.5326C135.91 42.5996 135.717 42.654 135.474 42.6959C135.232 42.7461 134.989 42.7712 134.746 42.7712C134.378 42.7712 134.039 42.7084 133.729 42.5829C133.427 42.4573 133.185 42.2396 133 41.9298C132.816 41.6201 132.724 41.1889 132.724 40.6364V36.8941H131.782V36.2913L132.774 35.789L133.239 34.3574H134.055V35.8769H135.989V36.8941H134.055V40.6113C134.055 40.9796 134.143 41.2517 134.319 41.4275C134.503 41.6033 134.742 41.6912 135.035 41.6912Z" fill="#2C3333"/>
<path d="M139.365 35.8769V42.6457H138.034V35.8769H139.365ZM138.712 33.3025C138.913 33.3025 139.089 33.3611 139.239 33.4783C139.39 33.5955 139.465 33.7923 139.465 34.0685C139.465 34.3364 139.39 34.5332 139.239 34.6588C139.089 34.776 138.913 34.8346 138.712 34.8346C138.494 34.8346 138.31 34.776 138.159 34.6588C138.017 34.5332 137.946 34.3364 137.946 34.0685C137.946 33.7923 138.017 33.5955 138.159 33.4783C138.31 33.3611 138.494 33.3025 138.712 33.3025Z" fill="#2C3333"/>
<path d="M148.048 39.255C148.048 40.0001 147.919 40.6364 147.659 41.1638C147.4 41.6912 147.027 42.0931 146.541 42.3694C146.064 42.6373 145.499 42.7712 144.846 42.7712C144.243 42.7712 143.703 42.6373 143.226 42.3694C142.749 42.0931 142.372 41.6912 142.096 41.1638C141.828 40.6364 141.694 40.0001 141.694 39.255C141.694 38.1331 141.979 37.2708 142.548 36.668C143.117 36.0569 143.896 35.7513 144.884 35.7513C145.503 35.7513 146.047 35.8894 146.516 36.1657C146.993 36.4336 147.366 36.8271 147.634 37.3462C147.91 37.8652 148.048 38.5015 148.048 39.255ZM143.063 39.255C143.063 39.7573 143.126 40.1927 143.251 40.561C143.377 40.921 143.574 41.1973 143.841 41.3899C144.109 41.5824 144.453 41.6787 144.871 41.6787C145.29 41.6787 145.633 41.5824 145.901 41.3899C146.169 41.1973 146.366 40.921 146.491 40.561C146.617 40.1927 146.68 39.7573 146.68 39.255C146.68 38.7359 146.613 38.3006 146.479 37.949C146.353 37.5973 146.156 37.3294 145.888 37.1452C145.629 36.9527 145.286 36.8564 144.859 36.8564C144.231 36.8564 143.774 37.0657 143.49 37.4843C143.205 37.9029 143.063 38.4931 143.063 39.255Z" fill="#2C3333"/>
<path d="M153.792 35.7513C154.579 35.7513 155.182 35.948 155.6 36.3415C156.019 36.735 156.228 37.3671 156.228 38.2378V42.6457H154.91V38.4262C154.91 37.8987 154.797 37.5052 154.571 37.2457C154.353 36.9778 154.001 36.8439 153.516 36.8439C152.829 36.8439 152.352 37.049 152.084 37.4592C151.825 37.8694 151.695 38.4596 151.695 39.2299V42.6457H150.364V35.8769H151.419L151.607 36.7811H151.682C151.833 36.5466 152.017 36.3541 152.235 36.2034C152.453 36.0527 152.695 35.9397 152.963 35.8643C153.231 35.789 153.507 35.7513 153.792 35.7513Z" fill="#2C3333"/>
<path d="M161.526 35.7513C162.38 35.7513 163.017 35.9397 163.435 36.3164C163.854 36.6848 164.063 37.2666 164.063 38.062V42.6457H163.121L162.857 41.7038H162.807C162.615 41.9466 162.414 42.1475 162.204 42.3066C162.004 42.4657 161.769 42.5829 161.501 42.6582C161.242 42.7336 160.924 42.7712 160.547 42.7712C160.145 42.7712 159.781 42.7001 159.454 42.5577C159.136 42.4071 158.885 42.181 158.701 41.8796C158.517 41.5698 158.425 41.1847 158.425 40.7243C158.425 40.0378 158.684 39.5145 159.203 39.1545C159.731 38.7945 160.53 38.5978 161.602 38.5643L162.757 38.5266V38.1499C162.757 37.6476 162.644 37.2959 162.418 37.095C162.192 36.8941 161.874 36.7936 161.464 36.7936C161.112 36.7936 160.777 36.8439 160.459 36.9443C160.141 37.0448 159.839 37.1662 159.555 37.3085L159.128 36.3415C159.446 36.1741 159.81 36.036 160.22 35.9271C160.639 35.8099 161.074 35.7513 161.526 35.7513ZM161.84 39.4182C161.07 39.4517 160.534 39.5815 160.233 39.8075C159.94 40.0252 159.793 40.335 159.793 40.7368C159.793 41.0885 159.898 41.3438 160.107 41.5029C160.325 41.6619 160.597 41.7415 160.924 41.7415C161.451 41.7415 161.886 41.595 162.23 41.3019C162.573 41.0089 162.744 40.5694 162.744 39.9834V39.3931L161.84 39.4182Z" fill="#2C3333"/>
<path d="M170.081 35.7513C170.198 35.7513 170.328 35.7597 170.47 35.7764C170.613 35.7848 170.73 35.7973 170.822 35.8141L170.684 37.0573C170.592 37.0322 170.483 37.0113 170.357 36.9945C170.232 36.9778 170.115 36.9694 170.006 36.9694C169.671 36.9694 169.353 37.0532 169.051 37.2206C168.758 37.388 168.52 37.6308 168.336 37.949C168.16 38.2587 168.072 38.6355 168.072 39.0792V42.6457H166.741V35.8769H167.796L167.971 37.0825H168.022C168.239 36.7225 168.52 36.4127 168.863 36.1532C169.206 35.8853 169.612 35.7513 170.081 35.7513Z" fill="#2C3333"/>
<path d="M171.674 35.8769H173.105L174.512 39.7196C174.62 40.0043 174.713 40.2847 174.788 40.561C174.872 40.8373 174.934 41.1052 174.976 41.3647H175.027C175.068 41.1471 175.135 40.8917 175.227 40.5987C175.32 40.2973 175.416 40.0001 175.516 39.7071L176.847 35.8769H178.279L175.378 43.5624C175.219 43.9977 175.022 44.3703 174.788 44.68C174.553 44.9982 174.273 45.241 173.947 45.4084C173.628 45.5759 173.252 45.6596 172.816 45.6596C172.607 45.6596 172.427 45.647 172.276 45.6219C172.126 45.6052 171.996 45.5842 171.887 45.5591V44.5042C171.979 44.521 172.088 44.5377 172.214 44.5545C172.347 44.5712 172.486 44.5796 172.628 44.5796C173.013 44.5796 173.323 44.4666 173.557 44.2405C173.792 44.0145 173.976 43.7256 174.11 43.374L174.386 42.6457L171.674 35.8769Z" fill="#2C3333"/>
<path d="M188.415 39.255C188.373 39.0875 188.323 38.9034 188.264 38.7024C188.214 38.5015 188.164 38.3006 188.113 38.0997C188.063 37.8904 188.017 37.6978 187.975 37.522C187.933 37.3462 187.9 37.208 187.875 37.1076H187.824C187.808 37.208 187.778 37.3462 187.737 37.522C187.703 37.6978 187.661 37.8904 187.611 38.0997C187.561 38.3006 187.511 38.5057 187.46 38.715C187.41 38.9159 187.356 39.1001 187.297 39.2675L186.292 42.6331H184.811L182.939 35.8643H184.296L185.175 39.2927C185.242 39.5271 185.3 39.7741 185.351 40.0336C185.409 40.2931 185.459 40.5443 185.501 40.7871C185.551 41.0215 185.585 41.2182 185.602 41.3773H185.652C185.669 41.2685 185.694 41.1345 185.727 40.9754C185.761 40.808 185.794 40.6364 185.828 40.4606C185.87 40.2764 185.907 40.1006 185.941 39.9331C185.983 39.7657 186.025 39.6275 186.066 39.5187L187.146 35.8643H188.603L189.658 39.5187C189.708 39.6861 189.763 39.8871 189.821 40.1215C189.88 40.3475 189.93 40.5736 189.972 40.7996C190.022 41.0173 190.056 41.2057 190.072 41.3647H190.123C190.139 41.2224 190.169 41.0382 190.211 40.8122C190.252 40.5778 190.303 40.3266 190.361 40.0587C190.428 39.7908 190.491 39.5355 190.55 39.2927L191.454 35.8643H192.797L190.901 42.6331H189.382L188.415 39.255Z" fill="#2C3333"/>
<path d="M197.226 35.7513C198.08 35.7513 198.716 35.9397 199.135 36.3164C199.553 36.6848 199.763 37.2666 199.763 38.062V42.6457H198.821L198.557 41.7038H198.507C198.314 41.9466 198.113 42.1475 197.904 42.3066C197.703 42.4657 197.469 42.5829 197.201 42.6582C196.941 42.7336 196.623 42.7712 196.246 42.7712C195.845 42.7712 195.48 42.7001 195.154 42.5577C194.836 42.4071 194.585 42.181 194.4 41.8796C194.216 41.5698 194.124 41.1847 194.124 40.7243C194.124 40.0378 194.384 39.5145 194.903 39.1545C195.43 38.7945 196.23 38.5978 197.301 38.5643L198.457 38.5266V38.1499C198.457 37.6476 198.344 37.2959 198.118 37.095C197.892 36.8941 197.573 36.7936 197.163 36.7936C196.812 36.7936 196.477 36.8439 196.159 36.9443C195.84 37.0448 195.539 37.1662 195.254 37.3085L194.827 36.3415C195.145 36.1741 195.51 36.036 195.92 35.9271C196.339 35.8099 196.774 35.7513 197.226 35.7513ZM197.54 39.4182C196.77 39.4517 196.234 39.5815 195.932 39.8075C195.639 40.0252 195.493 40.335 195.493 40.7368C195.493 41.0885 195.598 41.3438 195.807 41.5029C196.025 41.6619 196.297 41.7415 196.623 41.7415C197.151 41.7415 197.586 41.595 197.929 41.3019C198.272 41.0089 198.444 40.5694 198.444 39.9834V39.3931L197.54 39.4182Z" fill="#2C3333"/>
<path d="M201.41 35.8769H202.842L204.249 39.7196C204.357 40.0043 204.45 40.2847 204.525 40.561C204.609 40.8373 204.671 41.1052 204.713 41.3647H204.763C204.805 41.1471 204.872 40.8917 204.964 40.5987C205.057 40.2973 205.153 40.0001 205.253 39.7071L206.584 35.8769H208.016L205.115 43.5624C204.956 43.9977 204.759 44.3703 204.525 44.68C204.29 44.9982 204.01 45.241 203.683 45.4084C203.365 45.5759 202.989 45.6596 202.553 45.6596C202.344 45.6596 202.164 45.647 202.013 45.6219C201.863 45.6052 201.733 45.5842 201.624 45.5591V44.5042C201.716 44.521 201.825 44.5377 201.95 44.5545C202.084 44.5712 202.223 44.5796 202.365 44.5796C202.75 44.5796 203.06 44.4666 203.294 44.2405C203.529 44.0145 203.713 43.7256 203.847 43.374L204.123 42.6457L201.41 35.8769Z" fill="#2C3333"/>
<path d="M216.017 41.6912C216.193 41.6912 216.373 41.6745 216.557 41.641C216.741 41.6075 216.9 41.5698 217.034 41.528V42.5326C216.892 42.5996 216.699 42.654 216.456 42.6959C216.214 42.7461 215.971 42.7712 215.728 42.7712C215.36 42.7712 215.021 42.7084 214.711 42.5829C214.409 42.4573 214.167 42.2396 213.982 41.9298C213.798 41.6201 213.706 41.1889 213.706 40.6364V36.8941H212.764V36.2913L213.756 35.789L214.221 34.3574H215.037V35.8769H216.971V36.8941H215.037V40.6113C215.037 40.9796 215.125 41.2517 215.301 41.4275C215.485 41.6033 215.724 41.6912 216.017 41.6912Z" fill="#2C3333"/>
<path d="M224.981 39.255C224.981 40.0001 224.851 40.6364 224.592 41.1638C224.332 41.6912 223.96 42.0931 223.474 42.3694C222.997 42.6373 222.432 42.7712 221.779 42.7712C221.176 42.7712 220.636 42.6373 220.159 42.3694C219.681 42.0931 219.305 41.6912 219.028 41.1638C218.76 40.6364 218.627 40.0001 218.627 39.255C218.627 38.1331 218.911 37.2708 219.48 36.668C220.05 36.0569 220.828 35.7513 221.816 35.7513C222.436 35.7513 222.98 35.8894 223.449 36.1657C223.926 36.4336 224.299 36.8271 224.566 37.3462C224.843 37.8652 224.981 38.5015 224.981 39.255ZM219.995 39.255C219.995 39.7573 220.058 40.1927 220.184 40.561C220.309 40.921 220.506 41.1973 220.774 41.3899C221.042 41.5824 221.385 41.6787 221.804 41.6787C222.222 41.6787 222.566 41.5824 222.833 41.3899C223.101 41.1973 223.298 40.921 223.424 40.561C223.549 40.1927 223.612 39.7573 223.612 39.255C223.612 38.7359 223.545 38.3006 223.411 37.949C223.286 37.5973 223.089 37.3294 222.821 37.1452C222.561 36.9527 222.218 36.8564 221.791 36.8564C221.163 36.8564 220.707 37.0657 220.422 37.4843C220.138 37.9029 219.995 38.4931 219.995 39.255Z" fill="#2C3333"/>
<path d="M233.849 35.7513C234.443 35.7513 234.954 35.8769 235.381 36.128C235.808 36.3708 236.134 36.7225 236.36 37.1829C236.595 37.6434 236.712 38.1876 236.712 38.8155V39.5438H232.166C232.183 40.2387 232.363 40.7703 232.706 41.1387C233.057 41.5071 233.547 41.6912 234.175 41.6912C234.61 41.6912 234.996 41.6536 235.33 41.5782C235.674 41.4945 236.025 41.3731 236.385 41.214V42.3191C236.05 42.4698 235.707 42.5829 235.356 42.6582C235.012 42.7336 234.602 42.7712 234.125 42.7712C233.472 42.7712 232.894 42.6415 232.392 42.3819C231.89 42.1224 231.496 41.7373 231.211 41.2266C230.935 40.7075 230.797 40.0713 230.797 39.3178C230.797 38.5559 230.923 37.9113 231.174 37.3838C231.433 36.8564 231.789 36.4546 232.241 36.1783C232.702 35.8936 233.237 35.7513 233.849 35.7513ZM233.849 36.7811C233.371 36.7811 232.986 36.9359 232.693 37.2457C232.409 37.5555 232.241 37.995 232.191 38.5643H235.381C235.381 38.2127 235.326 37.9029 235.217 37.635C235.109 37.3671 234.941 37.1578 234.715 37.0071C234.489 36.8564 234.2 36.7811 233.849 36.7811Z" fill="#2C3333"/>
<path d="M241.324 42.7712C240.512 42.7712 239.855 42.4782 239.352 41.8922C238.858 41.3061 238.611 40.4354 238.611 39.2801C238.611 38.1164 238.863 37.2373 239.365 36.6429C239.867 36.0485 240.529 35.7513 241.349 35.7513C241.86 35.7513 242.278 35.8476 242.605 36.0401C242.931 36.2327 243.195 36.4671 243.396 36.7434H243.471C243.455 36.6262 243.434 36.4587 243.409 36.2411C243.383 36.015 243.371 35.8141 243.371 35.6383V33.1016H244.702V42.6457H243.66L243.434 41.7415H243.371C243.178 42.0261 242.919 42.2689 242.592 42.4698C242.266 42.6708 241.843 42.7712 241.324 42.7712ZM241.638 41.6787C242.291 41.6787 242.751 41.4987 243.019 41.1387C243.287 40.7703 243.421 40.222 243.421 39.4936V39.2927C243.421 38.4973 243.291 37.8904 243.032 37.4718C242.781 37.0532 242.312 36.8439 241.625 36.8439C241.081 36.8439 240.671 37.0657 240.395 37.5094C240.118 37.9448 239.98 38.5434 239.98 39.3052C239.98 40.0671 240.118 40.6531 240.395 41.0633C240.671 41.4736 241.085 41.6787 241.638 41.6787Z" fill="#2C3333"/>
<path d="M253.243 35.8769V42.6457H252.176L251.987 41.754H251.924C251.782 41.9885 251.598 42.181 251.372 42.3317C251.146 42.4824 250.899 42.5912 250.631 42.6582C250.363 42.7336 250.087 42.7712 249.802 42.7712C249.275 42.7712 248.827 42.6875 248.458 42.5201C248.098 42.3443 247.822 42.0764 247.63 41.7164C247.445 41.348 247.353 40.8792 247.353 40.3099V35.8769H248.697V40.1089C248.697 40.6364 248.806 41.0299 249.024 41.2894C249.25 41.5489 249.597 41.6787 250.066 41.6787C250.761 41.6787 251.242 41.4736 251.51 41.0633C251.778 40.6531 251.912 40.0671 251.912 39.3052V35.8769H253.243Z" fill="#2C3333"/>
<path d="M258.679 42.7712C258.06 42.7712 257.515 42.6498 257.047 42.4071C256.578 42.1643 256.214 41.7875 255.954 41.2768C255.695 40.7578 255.565 40.1006 255.565 39.3052C255.565 38.468 255.703 37.7899 255.979 37.2708C256.264 36.7518 256.645 36.3708 257.122 36.128C257.608 35.8769 258.16 35.7513 258.78 35.7513C259.156 35.7513 259.508 35.7932 259.834 35.8769C260.169 35.9522 260.446 36.0401 260.663 36.1406L260.261 37.2206C260.027 37.1285 259.776 37.049 259.508 36.982C259.248 36.915 259.001 36.8815 258.767 36.8815C258.348 36.8815 258.001 36.9736 257.725 37.1578C257.457 37.3336 257.256 37.6015 257.122 37.9615C256.996 38.3131 256.934 38.7569 256.934 39.2927C256.934 39.8034 257.001 40.2345 257.135 40.5861C257.268 40.9378 257.465 41.2057 257.725 41.3899C257.993 41.5657 258.323 41.6536 258.717 41.6536C259.094 41.6536 259.424 41.6117 259.709 41.528C259.994 41.4443 260.261 41.3354 260.513 41.2015V42.3568C260.27 42.4991 260.006 42.6038 259.721 42.6708C259.437 42.7377 259.089 42.7712 258.679 42.7712Z" fill="#2C3333"/>
<path d="M265.363 35.7513C266.217 35.7513 266.853 35.9397 267.272 36.3164C267.69 36.6848 267.9 37.2666 267.9 38.062V42.6457H266.958L266.694 41.7038H266.644C266.451 41.9466 266.25 42.1475 266.041 42.3066C265.84 42.4657 265.606 42.5829 265.338 42.6582C265.078 42.7336 264.76 42.7712 264.383 42.7712C263.982 42.7712 263.617 42.7001 263.291 42.5577C262.973 42.4071 262.722 42.181 262.537 41.8796C262.353 41.5698 262.261 41.1847 262.261 40.7243C262.261 40.0378 262.521 39.5145 263.04 39.1545C263.567 38.7945 264.367 38.5978 265.438 38.5643L266.594 38.5266V38.1499C266.594 37.6476 266.481 37.2959 266.255 37.095C266.029 36.8941 265.71 36.7936 265.3 36.7936C264.949 36.7936 264.614 36.8439 264.296 36.9443C263.977 37.0448 263.676 37.1662 263.391 37.3085L262.964 36.3415C263.283 36.1741 263.647 36.036 264.057 35.9271C264.476 35.8099 264.911 35.7513 265.363 35.7513ZM265.677 39.4182C264.907 39.4517 264.371 39.5815 264.069 39.8075C263.776 40.0252 263.63 40.335 263.63 40.7368C263.63 41.0885 263.735 41.3438 263.944 41.5029C264.162 41.6619 264.434 41.7415 264.76 41.7415C265.288 41.7415 265.723 41.595 266.066 41.3019C266.409 41.0089 266.581 40.5694 266.581 39.9834V39.3931L265.677 39.4182Z" fill="#2C3333"/>
<path d="M273.014 41.6912C273.189 41.6912 273.369 41.6745 273.554 41.641C273.738 41.6075 273.897 41.5698 274.031 41.528V42.5326C273.888 42.5996 273.696 42.654 273.453 42.6959C273.21 42.7461 272.967 42.7712 272.725 42.7712C272.356 42.7712 272.017 42.7084 271.708 42.5829C271.406 42.4573 271.163 42.2396 270.979 41.9298C270.795 41.6201 270.703 41.1889 270.703 40.6364V36.8941H269.761V36.2913L270.753 35.789L271.218 34.3574H272.034V35.8769H273.968V36.8941H272.034V40.6113C272.034 40.9796 272.122 41.2517 272.298 41.4275C272.482 41.6033 272.721 41.6912 273.014 41.6912Z" fill="#2C3333"/>
<path d="M278.675 35.7513C279.269 35.7513 279.78 35.8769 280.207 36.128C280.634 36.3708 280.96 36.7225 281.186 37.1829C281.421 37.6434 281.538 38.1876 281.538 38.8155V39.5438H276.992C277.009 40.2387 277.189 40.7703 277.532 41.1387C277.884 41.5071 278.373 41.6912 279.001 41.6912C279.437 41.6912 279.822 41.6536 280.157 41.5782C280.5 41.4945 280.852 41.3731 281.212 41.214V42.3191C280.877 42.4698 280.533 42.5829 280.182 42.6582C279.839 42.7336 279.428 42.7712 278.951 42.7712C278.298 42.7712 277.72 42.6415 277.218 42.3819C276.716 42.1224 276.322 41.7373 276.038 41.2266C275.761 40.7075 275.623 40.0713 275.623 39.3178C275.623 38.5559 275.749 37.9113 276 37.3838C276.26 36.8564 276.615 36.4546 277.067 36.1783C277.528 35.8936 278.064 35.7513 278.675 35.7513ZM278.675 36.7811C278.198 36.7811 277.813 36.9359 277.52 37.2457C277.235 37.5555 277.067 37.995 277.017 38.5643H280.207C280.207 38.2127 280.152 37.9029 280.044 37.635C279.935 37.3671 279.767 37.1578 279.541 37.0071C279.315 36.8564 279.026 36.7811 278.675 36.7811Z" fill="#2C3333"/>
<defs>
<radialGradient id="paint0_radial_1704_1565" cx="0" cy="0" r="1" gradientUnits="userSpaceOnUse" gradientTransform="translate(30.4276 -4.8729) scale(57.6454 57.7506)">
<stop stop-color="#FFCD0C"/>
<stop offset="1" stop-color="#F7941D"/>
</radialGradient>
<radialGradient id="paint1_radial_1704_1565" cx="0" cy="0" r="1" gradientUnits="userSpaceOnUse" gradientTransform="translate(30.4274 -4.87303) scale(57.6454 57.7506)">
<stop stop-color="#FFCD0C"/>
<stop offset="1" stop-color="#F7941D"/>
</radialGradient>
<radialGradient id="paint2_radial_1704_1565" cx="0" cy="0" r="1" gradientUnits="userSpaceOnUse" gradientTransform="translate(30.4288 -4.8731) scale(57.6454 57.7506)">
<stop stop-color="#FFCD0C"/>
<stop offset="1" stop-color="#F7941D"/>
</radialGradient>
<radialGradient id="paint3_radial_1704_1565" cx="0" cy="0" r="1" gradientUnits="userSpaceOnUse" gradientTransform="translate(30.4295 -4.87304) scale(57.6454 57.7506)">
<stop stop-color="#FFCD0C"/>
<stop offset="1" stop-color="#F7941D"/>
</radialGradient>
<radialGradient id="paint4_radial_1704_1565" cx="0" cy="0" r="1" gradientUnits="userSpaceOnUse" gradientTransform="translate(30.4283 -4.87279) scale(57.6454 57.7506)">
<stop stop-color="#FFCD0C"/>
<stop offset="1" stop-color="#F7941D"/>
</radialGradient>
<radialGradient id="paint5_radial_1704_1565" cx="0" cy="0" r="1" gradientUnits="userSpaceOnUse" gradientTransform="translate(30.4279 -4.87278) scale(57.6454 57.7506)">
<stop stop-color="#FFCD0C"/>
<stop offset="1" stop-color="#F7941D"/>
</radialGradient>
<radialGradient id="paint6_radial_1704_1565" cx="0" cy="0" r="1" gradientUnits="userSpaceOnUse" gradientTransform="translate(30.4291 -4.87315) scale(57.6454 57.7506)">
<stop stop-color="#FFCD0C"/>
<stop offset="1" stop-color="#F7941D"/>
</radialGradient>
<radialGradient id="paint7_radial_1704_1565" cx="0" cy="0" r="1" gradientUnits="userSpaceOnUse" gradientTransform="translate(30.4287 -4.87268) scale(57.6454 57.7506)">
<stop stop-color="#FFCD0C"/>
<stop offset="1" stop-color="#F7941D"/>
</radialGradient>
<radialGradient id="paint8_radial_1704_1565" cx="0" cy="0" r="1" gradientUnits="userSpaceOnUse" gradientTransform="translate(30.4281 -4.87347) scale(57.6454 57.7506)">
<stop stop-color="#FFCD0C"/>
<stop offset="1" stop-color="#F7941D"/>
</radialGradient>
<radialGradient id="paint9_radial_1704_1565" cx="0" cy="0" r="1" gradientUnits="userSpaceOnUse" gradientTransform="translate(30.4271 -4.87307) scale(57.6454 57.7506)">
<stop stop-color="#FFCD0C"/>
<stop offset="1" stop-color="#F7941D"/>
</radialGradient>
<radialGradient id="paint10_radial_1704_1565" cx="0" cy="0" r="1" gradientUnits="userSpaceOnUse" gradientTransform="translate(30.4276 -4.8735) scale(57.6454 57.7506)">
<stop stop-color="#FFCD0C"/>
<stop offset="1" stop-color="#F7941D"/>
</radialGradient>
<radialGradient id="paint11_radial_1704_1565" cx="0" cy="0" r="1" gradientUnits="userSpaceOnUse" gradientTransform="translate(30.4274 -4.87321) scale(57.6454 57.7506)">
<stop stop-color="#FFCD0C"/>
<stop offset="1" stop-color="#F7941D"/>
</radialGradient>
<radialGradient id="paint12_radial_1704_1565" cx="0" cy="0" r="1" gradientUnits="userSpaceOnUse" gradientTransform="translate(30.4283 -4.87301) scale(57.6454 57.7506)">
<stop stop-color="#FFCD0C"/>
<stop offset="1" stop-color="#F7941D"/>
</radialGradient>
<radialGradient id="paint13_radial_1704_1565" cx="0" cy="0" r="1" gradientUnits="userSpaceOnUse" gradientTransform="translate(30.4292 -4.87318) scale(57.6454 57.7506)">
<stop stop-color="#FFCD0C"/>
<stop offset="1" stop-color="#F7941D"/>
</radialGradient>
<radialGradient id="paint14_radial_1704_1565" cx="0" cy="0" r="1" gradientUnits="userSpaceOnUse" gradientTransform="translate(37.5655 0.0809456) scale(57.6454 57.7506)">
<stop stop-color="#FFCD0C"/>
<stop offset="1" stop-color="#F7941D"/>
</radialGradient>
<radialGradient id="paint15_radial_1704_1565" cx="0" cy="0" r="1" gradientUnits="userSpaceOnUse" gradientTransform="translate(37.5642 -4.87303) scale(57.6455 57.7506)">
<stop stop-color="#FFCD0C"/>
<stop offset="1" stop-color="#F7941D"/>
</radialGradient>
<radialGradient id="paint16_radial_1704_1565" cx="0" cy="0" r="1" gradientUnits="userSpaceOnUse" gradientTransform="translate(37.5653 -4.8731) scale(57.6454 57.7506)">
<stop stop-color="#FFCD0C"/>
<stop offset="1" stop-color="#F7941D"/>
</radialGradient>
<radialGradient id="paint17_radial_1704_1565" cx="0" cy="0" r="1" gradientUnits="userSpaceOnUse" gradientTransform="translate(37.5649 -4.87304) scale(57.6454 57.7506)">
<stop stop-color="#FFCD0C"/>
<stop offset="1" stop-color="#F7941D"/>
</radialGradient>
<radialGradient id="paint18_radial_1704_1565" cx="0" cy="0" r="1" gradientUnits="userSpaceOnUse" gradientTransform="translate(37.5647 -4.87279) scale(57.6454 57.7506)">
<stop stop-color="#FFCD0C"/>
<stop offset="1" stop-color="#F7941D"/>
</radialGradient>
<radialGradient id="paint19_radial_1704_1565" cx="0" cy="0" r="1" gradientUnits="userSpaceOnUse" gradientTransform="translate(37.5643 -4.87278) scale(57.6454 57.7506)">
<stop stop-color="#FFCD0C"/>
<stop offset="1" stop-color="#F7941D"/>
</radialGradient>
<radialGradient id="paint20_radial_1704_1565" cx="0" cy="0" r="1" gradientUnits="userSpaceOnUse" gradientTransform="translate(37.5627 -4.87315) scale(57.6454 57.7506)">
<stop stop-color="#FFCD0C"/>
<stop offset="1" stop-color="#F7941D"/>
</radialGradient>
<radialGradient id="paint21_radial_1704_1565" cx="0" cy="0" r="1" gradientUnits="userSpaceOnUse" gradientTransform="translate(37.5631 -4.87268) scale(57.6454 57.7506)">
<stop stop-color="#FFCD0C"/>
<stop offset="1" stop-color="#F7941D"/>
</radialGradient>
<radialGradient id="paint22_radial_1704_1565" cx="0" cy="0" r="1" gradientUnits="userSpaceOnUse" gradientTransform="translate(37.5662 -4.87347) scale(57.6454 57.7506)">
<stop stop-color="#FFCD0C"/>
<stop offset="1" stop-color="#F7941D"/>
</radialGradient>
<radialGradient id="paint23_radial_1704_1565" cx="0" cy="0" r="1" gradientUnits="userSpaceOnUse" gradientTransform="translate(37.5654 -4.87307) scale(57.6454 57.7506)">
<stop stop-color="#FFCD0C"/>
<stop offset="1" stop-color="#F7941D"/>
</radialGradient>
<radialGradient id="paint24_radial_1704_1565" cx="0" cy="0" r="1" gradientUnits="userSpaceOnUse" gradientTransform="translate(37.5651 -4.8735) scale(57.6454 57.7506)">
<stop stop-color="#FFCD0C"/>
<stop offset="1" stop-color="#F7941D"/>
</radialGradient>
<radialGradient id="paint25_radial_1704_1565" cx="0" cy="0" r="1" gradientUnits="userSpaceOnUse" gradientTransform="translate(37.5653 -4.87321) scale(57.6454 57.7506)">
<stop stop-color="#FFCD0C"/>
<stop offset="1" stop-color="#F7941D"/>
</radialGradient>
<radialGradient id="paint26_radial_1704_1565" cx="0" cy="0" r="1" gradientUnits="userSpaceOnUse" gradientTransform="translate(37.5636 -4.87301) scale(57.6454 57.7506)">
<stop stop-color="#FFCD0C"/>
<stop offset="1" stop-color="#F7941D"/>
</radialGradient>
<radialGradient id="paint27_radial_1704_1565" cx="0" cy="0" r="1" gradientUnits="userSpaceOnUse" gradientTransform="translate(37.5637 -4.87318) scale(57.6454 57.7506)">
<stop stop-color="#FFCD0C"/>
<stop offset="1" stop-color="#F7941D"/>
</radialGradient>
<linearGradient id="paint28_linear_1704_1565" x1="46.2869" y1="3.7" x2="19.9286" y2="44.5356" gradientUnits="userSpaceOnUse">
<stop stop-color="#00AEEF"/>
<stop offset="0.44" stop-color="#0C95D9"/>
<stop offset="1" stop-color="#1C75BC"/>
</linearGradient>
<linearGradient id="paint29_linear_1704_1565" x1="38.3277" y1="46.3283" x2="29.9464" y2="10.395" gradientUnits="userSpaceOnUse">
<stop stop-color="#00AEEF"/>
<stop offset="1" stop-color="#4EC9F5"/>
</linearGradient>
<linearGradient id="paint30_linear_1704_1565" x1="41.4778" y1="9.09677" x2="26.242" y2="32.7006" gradientUnits="userSpaceOnUse">
<stop stop-color="#00AEEF"/>
<stop offset="0.44" stop-color="#0C95D9"/>
<stop offset="1" stop-color="#1C75BC"/>
</linearGradient>
<radialGradient id="paint31_radial_1704_1565" cx="0" cy="0" r="1" gradientUnits="userSpaceOnUse" gradientTransform="translate(25.0922 43.2811) scale(12.5067 12.5296)">
<stop stop-color="#FFCD0C"/>
<stop offset="1" stop-color="#F7941D"/>
</radialGradient>
<radialGradient id="paint32_radial_1704_1565" cx="0" cy="0" r="1" gradientUnits="userSpaceOnUse" gradientTransform="translate(41.9063 43.2811) rotate(-180) scale(12.5067 12.5296)">
<stop stop-color="#FFCD0C"/>
<stop offset="1" stop-color="#F7941D"/>
</radialGradient>
<radialGradient id="paint33_radial_1704_1565" cx="0" cy="0" r="1" gradientUnits="userSpaceOnUse" gradientTransform="translate(21.4097 50.8036) scale(9.30286 9.31984)">
<stop stop-color="#FFCD0C"/>
<stop offset="1" stop-color="#F7941D"/>
</radialGradient>
<radialGradient id="paint34_radial_1704_1565" cx="0" cy="0" r="1" gradientUnits="userSpaceOnUse" gradientTransform="translate(45.5897 50.8036) rotate(180) scale(9.30286 9.31984)">
<stop stop-color="#FFCD0C"/>
<stop offset="1" stop-color="#F7941D"/>
</radialGradient>
<clipPath id="clip0_1704_1565">
<rect width="67" height="56" fill="white"/>
</clipPath>
</defs>
</svg>
