<svg width="32" height="32" viewBox="0 0 32 32" fill="none" xmlns="http://www.w3.org/2000/svg">
<path d="M16 32C15.7052 32 15.4269 31.8608 15.2493 31.6246L6.24231 19.4842C4.65294 17.363 3.8125 14.8398 3.8125 12.1875C3.8125 5.4675 9.28 0 16 0C22.72 0 28.1875 5.4675 28.1875 12.1875C28.1875 14.8398 27.3471 17.363 25.7577 19.4842L16.7507 31.6246C16.5731 31.8608 16.2948 32 16 32Z" fill="url(#paint0_linear_1758_2350)"/>
<path d="M16 16.875C13.4146 16.875 11.3125 14.7721 11.3125 12.1875C11.3125 9.60294 13.4146 7.5 16 7.5C18.5854 7.5 20.6875 9.60294 20.6875 12.1875C20.6875 14.7721 18.5854 16.875 16 16.875Z" fill="url(#paint1_linear_1758_2350)"/>
<defs>
<linearGradient id="paint0_linear_1758_2350" x1="16" y1="32" x2="16" y2="0" gradientUnits="userSpaceOnUse">
<stop stop-color="#00B59C"/>
<stop offset="1" stop-color="#9CFFAC"/>
</linearGradient>
<linearGradient id="paint1_linear_1758_2350" x1="16" y1="16.875" x2="16" y2="7.5" gradientUnits="userSpaceOnUse">
<stop stop-color="#C3FFE8"/>
<stop offset="0.9973" stop-color="#F0FFF4"/>
</linearGradient>
</defs>
</svg>
