<svg width="32" height="32" viewBox="0 0 32 32" fill="none" xmlns="http://www.w3.org/2000/svg">
<path d="M15.9993 0C9.60903 0 4.41016 5.19887 4.41016 11.5891C4.41016 19.5196 14.7813 31.1621 15.2229 31.6538C15.6377 32.1157 16.3618 32.1149 16.7758 31.6538C17.2173 31.1621 27.5885 19.5196 27.5885 11.5891C27.5884 5.19887 22.3896 0 15.9993 0ZM15.9993 17.4199C12.7842 17.4199 10.1686 14.8042 10.1686 11.5891C10.1686 8.374 12.7843 5.75838 15.9993 5.75838C19.2144 5.75838 21.83 8.37406 21.83 11.5892C21.83 14.8043 19.2144 17.4199 15.9993 17.4199Z" fill="#019267"/>
</svg>
