<svg width="32" height="32" viewBox="0 0 32 32" fill="none" xmlns="http://www.w3.org/2000/svg">
<path d="M27.5712 22.2722C25.6381 20.6188 23.6763 19.6173 21.7669 21.2682L20.6268 22.2659C19.7926 22.9902 18.2416 26.3744 12.245 19.4762C6.24956 12.5866 9.81733 11.5139 10.6528 10.7959L11.7991 9.79686C13.6985 8.14223 12.9817 6.05926 11.6118 3.91511L10.7851 2.61638C9.40897 0.477216 7.91044 -0.927662 6.00605 0.724474L4.97705 1.6236C4.13537 2.23675 1.78267 4.2298 1.21198 8.0161C0.525149 12.5592 2.69178 17.7616 7.65569 23.4698C12.6133 29.1804 17.4674 32.0489 22.0654 31.9989C25.8866 31.9577 28.1944 29.9072 28.9162 29.1617L29.9489 28.2613C31.8483 26.6104 30.6682 24.9296 28.7339 23.2725L27.5712 22.2722Z" fill="#019267"/>
</svg>
