<svg width="32" height="32" viewBox="0 0 32 32" fill="none" xmlns="http://www.w3.org/2000/svg">
<path d="M27.3125 24.4375H25.25V19.9553C25.25 19.5281 24.9611 19.1548 24.5475 19.0478C22.6112 18.5464 20.7651 17.784 19.0605 16.7817C18.6723 16.5536 18.1765 16.6336 17.8798 16.9726L16.4488 18.6079C16.1345 18.9672 15.6047 19.0458 15.2427 18.7868C12.9588 17.1527 10.9405 15.1661 9.30635 12.8822C9.04735 12.5202 9.12591 11.9904 9.48522 11.6761L11.1263 10.2402C11.465 9.94387 11.5453 9.44869 11.3177 9.0605C10.3186 7.35675 9.55841 5.51213 9.05822 3.57781C8.95122 3.16406 8.57797 2.875 8.1506 2.875H2.82191C0.957534 2.875 -0.394903 4.65719 0.104597 6.46025C1.52247 11.5774 4.26685 16.2767 8.04103 20.0502C11.8152 23.8237 16.547 26.5675 21.665 27.9851C23.1182 28.3876 24.5414 27.5882 25.0499 26.3125H27.3125C28.8633 26.3125 30.125 27.5742 30.125 29.125C30.125 29.6427 30.5447 30.0625 31.0625 30.0625C31.5802 30.0625 32 29.6427 32 29.125C32 26.5403 29.8972 24.4375 27.3125 24.4375Z" fill="url(#paint0_linear_1758_2360)"/>
<path d="M14 1.9375C13.4822 1.9375 13.0625 2.35725 13.0625 2.875C13.0625 3.39275 13.4822 3.8125 14 3.8125C19.6863 3.8125 24.3125 8.43869 24.3125 14.125C24.3125 14.6427 24.7323 15.0625 25.25 15.0625C25.7677 15.0625 26.1875 14.6427 26.1875 14.125C26.1875 7.40481 20.7202 1.9375 14 1.9375ZM14 5.6875C13.4822 5.6875 13.0625 6.10725 13.0625 6.625C13.0625 7.14275 13.4822 7.5625 14 7.5625C17.6186 7.5625 20.5625 10.5064 20.5625 14.125C20.5625 14.6427 20.9823 15.0625 21.5 15.0625C22.0177 15.0625 22.4375 14.6427 22.4375 14.125C22.4375 9.47256 18.6524 5.6875 14 5.6875ZM14 9.4375C13.4822 9.4375 13.0625 9.85725 13.0625 10.375C13.0625 10.8927 13.4822 11.3125 14 11.3125C15.5508 11.3125 16.8125 12.5742 16.8125 14.125C16.8125 14.6427 17.2323 15.0625 17.75 15.0625C18.2677 15.0625 18.6875 14.6427 18.6875 14.125C18.6875 11.5403 16.5847 9.4375 14 9.4375Z" fill="url(#paint1_linear_1758_2360)"/>
<defs>
<linearGradient id="paint0_linear_1758_2360" x1="16" y1="30.0625" x2="16" y2="2.875" gradientUnits="userSpaceOnUse">
<stop stop-color="#00B59C"/>
<stop offset="1" stop-color="#9CFFAC"/>
</linearGradient>
<linearGradient id="paint1_linear_1758_2360" x1="19.625" y1="15.0625" x2="19.625" y2="1.9375" gradientUnits="userSpaceOnUse">
<stop stop-color="#C3FFE8"/>
<stop offset="0.9973" stop-color="#F0FFF4"/>
</linearGradient>
</defs>
</svg>
