<svg width="32" height="32" viewBox="0 0 32 32" fill="none" xmlns="http://www.w3.org/2000/svg">
<g id="Telegram" clip-path="url(#clip0_1710_4834)">
<path id="Vector" d="M15.9998 31.9996C24.8363 31.9996 31.9996 24.8363 31.9996 15.9998C31.9996 7.16336 24.8363 0 15.9998 0C7.16336 0 0 7.16336 0 15.9998C0 24.8363 7.16336 31.9996 15.9998 31.9996Z" fill="#41B4E6"/>
<path id="Vector_2" d="M32.0006 16.0011C32.0006 15.6112 31.9859 15.2249 31.9585 14.842L25.3273 8.21094L6.67383 15.5484L13.8108 22.6854L13.9044 23.0224L14.0256 22.9002L14.0261 22.9007L13.9044 23.0224L21.7992 30.9172C27.7692 28.5947 32.0006 22.7924 32.0006 16.0011Z" fill="#0091C8"/>
<path id="Vector_3" d="M14.4468 18.3322L21.6775 23.7914L25.3274 8.21094L6.67383 15.5484L12.3499 17.4284L22.7088 10.4799L14.4468 18.3322Z" fill="white"/>
<path id="Vector_4" d="M12.3496 17.427L13.9042 23.021L14.4465 18.3308L22.7085 10.4785L12.3496 17.427Z" fill="#D2D2D7"/>
<path id="Vector_5" d="M16.7966 20.1063L13.9043 23.0223L14.4466 18.332L16.7966 20.1063Z" fill="#B9B9BE"/>
</g>
<defs>
<clipPath id="clip0_1710_4834">
<rect width="32" height="32" fill="white"/>
</clipPath>
</defs>
</svg>
